<svg width="45" height="45" viewBox="0 0 45 45" fill="none" xmlns="http://www.w3.org/2000/svg">
<g clip-path="url(#clip0)">
<path d="M44.8996 30.9187C44.5874 29.7812 43.6336 28.9346 42.4669 28.7597V11.6599H43.957C44.3685 11.6599 44.702 11.3263 44.702 10.9149V3.46452C44.702 3.05271 44.3685 2.71948 43.957 2.71948H11.1755C10.7641 2.71948 10.4305 3.05271 10.4305 3.46452V10.9149C10.4305 11.3263 10.7641 11.6599 11.1755 11.6599H12.6656V26.5606H11.9205C10.0714 26.5562 8.26013 27.0862 6.70531 28.087V24.3255C6.70531 23.9137 6.37171 23.5804 5.96027 23.5804H0.745034C0.333592 23.5804 0 23.9137 0 24.3255V41.4613C0 41.8727 0.333592 42.2063 0.745034 42.2063H5.96027C6.37171 42.2063 6.70531 41.8727 6.70531 41.4613V37.7001C8.26049 38.7001 10.0714 39.2302 11.9205 39.2262H24.1539C25.0016 39.2247 25.8452 39.1134 26.6641 38.8951L42.7947 34.5741C44.3819 34.1415 45.3223 32.5088 44.8996 30.9187ZM11.9205 4.20955H43.212V10.1698H11.9205V4.20955ZM14.1556 11.6599H40.9769V28.8877L32.33 31.2065C31.9739 30.3574 31.2474 29.7197 30.3594 29.4763L20.3207 26.7839C19.7554 26.6351 19.1733 26.5598 18.5887 26.5606H14.1556V11.6599ZM5.21524 40.7162H1.49007V25.0705H5.21524V40.7162ZM42.408 33.1346L26.2803 37.4556C25.5865 37.6408 24.8721 37.735 24.1539 37.7361H11.9205C10.1467 37.7401 8.41983 37.1646 7.00325 36.0969L6.70531 35.8735V29.9132L7.00325 29.6895C8.41983 28.6218 10.1467 28.0459 11.9205 28.0506H18.5887C19.0438 28.0503 19.4975 28.1092 19.938 28.2256L29.9734 30.9158C30.5664 31.0792 31.0004 31.5874 31.0681 32.1989C31.0761 32.2295 31.0859 32.2596 31.0979 32.2891C31.0892 32.3211 31.0826 32.3535 31.0783 32.3866C31.079 32.5077 31.0626 32.6285 31.0291 32.7449C30.8538 33.3943 30.2656 33.8458 29.5929 33.8468C29.4616 33.8479 29.3314 33.8312 29.2048 33.7977L22.872 32.0996C22.6122 32.0225 22.331 32.0923 22.1375 32.2822C21.9443 32.4721 21.869 32.7518 21.9414 33.013C22.0138 33.2739 22.2222 33.4754 22.486 33.5384L28.8188 35.2372C29.0716 35.3038 29.3324 35.3373 29.5944 35.3369C30.9338 35.3362 32.1078 34.4402 32.4617 33.148C32.5032 32.9985 32.5312 32.8457 32.5461 32.6915L41.6288 30.2559C41.6935 30.2395 41.7637 30.2228 41.83 30.2119C42.5717 30.1162 43.2691 30.5851 43.4608 31.3076C43.4943 31.4335 43.511 31.5634 43.5099 31.6936C43.511 32.3681 43.0592 32.9588 42.408 33.1346Z" fill="#21AA1B"/>
<path d="M23.841 14.64H31.2913C31.7028 14.64 32.0364 14.3064 32.0364 13.895C32.0364 13.4832 31.7028 13.15 31.2913 13.15H23.841C23.4295 13.15 23.0959 13.4832 23.0959 13.895C23.0959 14.3064 23.4295 14.64 23.841 14.64Z" fill="#21AA1B"/>
</g>
<defs>
<clipPath id="clip0">
<rect width="45" height="45" fill="#21AA1B"/>
</clipPath>
</defs>
</svg>
