<svg width="46" height="47" viewBox="0 0 46 47" fill="none" xmlns="http://www.w3.org/2000/svg">
<g clip-path="url(#clip0)">
<path d="M13.3294 20.1551L13.3278 20.1847C13.2169 22.1894 14.3047 24.0675 16.0998 24.9679L16.1183 24.9771C16.7511 25.2897 17.2699 25.8049 17.5972 26.4455L17.6045 26.4595C18.509 28.2374 20.3799 29.3152 22.3742 29.2071L22.4045 29.2054C23.1278 29.1636 23.8458 29.3561 24.4578 29.7565C26.1466 30.8469 28.2903 30.8469 29.979 29.7565C30.591 29.3561 31.309 29.1636 32.0323 29.2054L32.0626 29.2071C34.0537 29.316 35.927 28.2374 36.8335 26.4565L36.838 26.4468C37.1665 25.8045 37.6865 25.2884 38.3214 24.9755L38.3362 24.9679C40.1313 24.0671 41.2195 22.1894 41.1082 20.1843L41.1066 20.1564C41.0698 19.4503 41.2596 18.7514 41.6474 18.1681C42.7639 16.4873 42.7639 14.271 41.6478 12.5898C41.2604 12.007 41.0698 11.3085 41.1066 10.6023L41.1082 10.5728C41.2195 8.56762 40.1313 6.69 38.3345 5.78878L38.3182 5.78034C37.6865 5.46867 37.169 4.95597 36.8413 4.31701L36.8319 4.29801C35.927 2.52005 34.0537 1.44272 32.0626 1.55042L32.0319 1.5521C31.309 1.59391 30.591 1.40134 29.9794 1.00098H29.9786C28.2899 -0.0894386 26.1462 -0.0894386 24.4574 1.00098C23.8454 1.40092 23.1274 1.59349 22.4041 1.55168L22.3738 1.54999C20.3823 1.44104 18.5095 2.51963 17.6049 4.29716L17.598 4.31025C17.2703 4.95217 16.7511 5.46782 16.1174 5.78076L16.1003 5.7892C14.3051 6.68958 13.2169 8.56762 13.3282 10.5728L13.3298 10.6007C13.3666 11.3068 13.1768 12.0057 12.789 12.5885C11.6726 14.2697 11.6726 16.4865 12.789 18.1673C13.1764 18.7501 13.3666 19.449 13.3294 20.1551ZM14.1681 13.5708C14.7666 12.6713 15.0599 11.5927 15.0026 10.5031L15.001 10.4735C14.9421 9.14493 15.6646 7.91092 16.8309 7.34628L16.8452 7.3391C17.8021 6.86611 18.5856 6.08736 19.0797 5.11857L19.0879 5.10252C19.6889 3.92088 20.9477 3.20463 22.2846 3.27811L22.3141 3.27938C23.3839 3.34146 24.4455 3.05682 25.3505 2.46473C26.4931 1.72694 27.9429 1.72694 29.0856 2.46473C29.9905 3.05597 31.0521 3.34104 32.1215 3.2798L32.151 3.27811C33.4944 3.20547 34.7471 3.92088 35.3464 5.09914L35.3575 5.12068C35.8517 6.0882 36.6343 6.86569 37.59 7.33826L37.6039 7.34544C38.7886 7.94006 39.5078 9.16773 39.4354 10.474L39.4338 10.5048C39.3765 11.5944 39.6702 12.6725 40.2688 13.5721C40.992 14.6612 40.9916 16.0971 40.2679 17.1858C39.6698 18.0858 39.3765 19.1644 39.4338 20.254L39.4354 20.2831C39.5078 21.5893 38.7886 22.8174 37.6035 23.4125L37.5912 23.4184C36.6335 23.8922 35.8492 24.6718 35.3546 25.6423L35.3485 25.655C34.7471 26.8366 33.4904 27.5533 32.1514 27.4794L32.1223 27.4777C31.0525 27.416 29.9905 27.7011 29.0851 28.2927C27.9429 29.0301 26.4931 29.0301 25.3509 28.2927C24.5278 27.7543 23.5729 27.4688 22.5984 27.4697C22.5039 27.4697 22.409 27.4722 22.3141 27.4777L22.2846 27.4789C20.9653 27.5655 19.7171 26.8527 19.0867 25.6529L19.0781 25.6364C18.5847 24.6693 17.8025 23.8922 16.8473 23.4196L16.8317 23.4116C15.6466 22.817 14.9274 21.5889 15.0002 20.2831L15.0018 20.2523C15.0587 19.1627 14.765 18.0841 14.1668 17.185C13.444 16.0958 13.4444 14.66 14.1681 13.5716V13.5708Z" fill="#21AA1B"/>
<path d="M21.8121 24.3196C22.2045 24.5726 22.7212 24.4489 22.9662 24.0439L32.8914 7.63013C33.0534 7.36787 33.0669 7.03593 32.9262 6.76101C32.7855 6.48566 32.5122 6.30997 32.2111 6.30026C31.91 6.29055 31.6269 6.44849 31.4698 6.71413L21.545 23.1279C21.2999 23.5333 21.4194 24.0667 21.8121 24.3196Z" fill="#21AA1B"/>
<path d="M22.7015 15.421C24.7417 15.421 26.4018 13.467 26.4018 11.0652C26.4018 8.66353 24.7417 6.7099 22.7015 6.7099C20.6613 6.7099 19.0016 8.66353 19.0016 11.0652C19.0016 13.467 20.6613 15.421 22.7015 15.421ZM22.7015 8.43971C23.8179 8.43971 24.7262 9.61755 24.7262 11.0652C24.7262 12.5129 23.8179 13.6912 22.7015 13.6912C21.5855 13.6912 20.6773 12.5125 20.6773 11.0652C20.6773 9.61797 21.5855 8.43971 22.7015 8.43971Z" fill="#21AA1B"/>
<path d="M28.0344 19.6923C28.0344 22.094 29.6942 24.0477 31.7344 24.0477C33.7745 24.0477 35.4347 22.0936 35.4347 19.6923C35.4347 17.2915 33.775 15.337 31.7348 15.337C29.6942 15.337 28.0344 17.2902 28.0344 19.6923ZM33.759 19.6923C33.759 21.14 32.8508 22.3179 31.7344 22.3179C30.6183 22.3179 29.7101 21.14 29.7101 19.6923C29.7101 18.2446 30.6183 17.0668 31.7344 17.0668C32.8508 17.0668 33.759 18.2438 33.759 19.6923Z" fill="#21AA1B"/>
<path d="M44.8929 34.0544C43.7834 32.0218 41.3231 31.2477 39.3042 32.2959L32.7409 35.4971C31.8348 33.7576 30.0965 32.6502 28.1836 32.5945L22.1248 32.4222C21.1654 32.3939 20.2241 32.1426 19.3711 31.6882L18.7546 31.3584C15.598 29.6598 11.8355 29.664 8.68211 31.3694L8.72056 29.9276C8.73324 29.4499 8.36873 29.0521 7.90604 29.039L1.26223 28.8502C0.79954 28.8372 0.414576 29.2134 0.401894 29.6911L0.000565286 44.742C-0.0121169 45.2196 0.352392 45.6175 0.815086 45.6305L7.45889 45.8193H7.48221C7.9359 45.8189 8.30696 45.446 8.31964 44.9781L8.33846 44.258L10.0645 43.304C10.7419 42.9277 11.5344 42.8382 12.2744 43.0544L22.5809 46.0406C22.5989 46.0461 22.6169 46.0503 22.6353 46.0545C23.3803 46.2154 24.1396 46.2961 24.9009 46.2957C26.5128 46.2965 28.1058 45.938 29.5708 45.2437C29.6068 45.2268 29.6416 45.2074 29.6747 45.1854L44.6184 35.2065C44.9911 34.9582 45.1114 34.4527 44.8929 34.0544ZM1.69875 43.9248L2.05384 30.6037L7.02279 30.7448L6.66728 44.0663L1.69875 43.9248ZM28.8156 43.698C26.9955 44.546 24.9627 44.78 23.0064 44.367L12.7273 41.3892C11.5708 41.0514 10.332 41.1916 9.27367 41.779L8.39164 42.2664L8.6281 33.4091C11.4227 31.4901 15.0072 31.2929 17.9838 32.8939L18.6004 33.2237C19.6779 33.7981 20.8668 34.1153 22.0789 34.1512L28.1377 34.3235C29.8396 34.3737 31.285 35.6246 31.6302 37.346L22.6055 37.0896C22.1428 37.0765 21.7578 37.4528 21.7451 37.9305C21.7324 38.4081 22.0969 38.8059 22.5596 38.819L32.5192 39.102H32.5429C32.9962 39.1015 33.3673 38.7286 33.38 38.2607C33.3902 37.8848 33.3628 37.5086 33.299 37.1386L40.0295 33.8551L40.0491 33.8454C41.004 33.3462 42.1589 33.513 42.9439 34.2635L28.8156 43.698Z" fill="#21AA1B"/>
</g>
<defs>
<clipPath id="clip0">
<rect width="45.0015" height="46.4551" fill="#21AA1B"/>
</clipPath>
</defs>
</svg>
