<svg width="45" height="45" viewBox="0 0 45 45" fill="none" xmlns="http://www.w3.org/2000/svg">
<path d="M29.5312 4.21875H30.9375V5.625H29.5312V4.21875Z" fill="white"/>
<path d="M22.2771 7.80679L23.2715 6.81242L24.2658 7.80679L23.2715 8.80117L22.2771 7.80679Z" fill="white"/>
<path d="M39.3398 27.0239L32.6735 30.8735C32.3364 30.5415 31.9198 30.3013 31.4634 30.176L21.8855 27.6096C21.3836 27.4756 20.8583 27.454 20.347 27.5463L14.0625 28.6875V27.4219C14.0625 27.2354 13.9884 27.0566 13.8566 26.9247C13.7247 26.7928 13.5459 26.7187 13.3594 26.7187H6.32813C6.14164 26.7187 5.9628 26.7928 5.83094 26.9247C5.69908 27.0566 5.625 27.2354 5.625 27.4219V28.125H2.10938C1.92289 28.125 1.74405 28.1991 1.61219 28.3309C1.48033 28.4628 1.40625 28.6416 1.40625 28.8281V41.4844C1.40625 41.6709 1.48033 41.8497 1.61219 41.9816C1.74405 42.1134 1.92289 42.1875 2.10938 42.1875H5.625V42.8906C5.625 43.0771 5.69908 43.2559 5.83094 43.3878C5.9628 43.5197 6.14164 43.5937 6.32813 43.5937H13.3594C13.5459 43.5937 13.7247 43.5197 13.8566 43.3878C13.9884 43.2559 14.0625 43.0771 14.0625 42.8906V40.8635L24.9427 42.0729C25.7474 42.1613 26.558 41.9701 27.2384 41.5315L42.1523 31.8987C42.5819 31.6538 42.9386 31.299 43.1858 30.8707C43.4329 30.4425 43.5616 29.9561 43.5586 29.4616C43.5588 28.9678 43.429 28.4827 43.1823 28.0549C42.9355 27.6272 42.5805 27.2719 42.1529 27.0249C41.7253 26.7779 41.2402 26.6479 40.7464 26.6478C40.2526 26.6477 39.7675 26.7777 39.3398 27.0246V27.0239ZM2.8125 40.7812V29.5312H5.625V40.7812H2.8125ZM12.6563 42.1875H7.03125V28.125H12.6563V42.1875ZM41.419 30.6984L26.4748 40.3502C26.0663 40.6128 25.5801 40.7274 25.0973 40.6751L14.0625 39.4488V30.1184L20.6016 28.9301C20.908 28.8738 21.2232 28.8865 21.5241 28.9673L31.102 31.5337C31.4623 31.6303 31.7695 31.8661 31.9559 32.1892C32.1424 32.5122 32.1928 32.8961 32.0963 33.2564C31.9997 33.6167 31.7639 33.9238 31.4408 34.1103C31.1178 34.2967 30.7339 34.3472 30.3736 34.2506L23.3852 32.3789C23.2952 32.3521 23.2007 32.3437 23.1074 32.354C23.014 32.3644 22.9236 32.3933 22.8417 32.4391C22.7597 32.485 22.6877 32.5468 22.63 32.6209C22.5723 32.695 22.53 32.78 22.5057 32.8707C22.4813 32.9614 22.4754 33.0561 22.4883 33.1491C22.5012 33.2422 22.5325 33.3317 22.5806 33.4124C22.6286 33.4932 22.6923 33.5634 22.768 33.6191C22.8436 33.6748 22.9297 33.7148 23.021 33.7366L30.0073 35.6091C30.3641 35.7048 30.7363 35.7292 31.1026 35.681C31.4689 35.6328 31.8221 35.513 32.142 35.3282C32.462 35.1435 32.7424 34.8976 32.9672 34.6045C33.1921 34.3113 33.357 33.9768 33.4526 33.6199C33.5876 33.1099 33.5751 32.5721 33.4167 32.0688L40.0402 28.2438C40.2013 28.1532 40.3788 28.0953 40.5623 28.0733C40.7459 28.0513 40.932 28.0656 41.11 28.1156C41.288 28.1655 41.4545 28.25 41.5998 28.3642C41.7452 28.4784 41.8666 28.6202 41.9572 28.7814C42.0478 28.9425 42.1058 29.12 42.1278 29.3035C42.1498 29.4871 42.1354 29.6732 42.0855 29.8512C42.0356 30.0292 41.9511 30.1957 41.8369 30.3411C41.7226 30.4864 41.5809 30.6079 41.4197 30.6984H41.419Z" fill="white"/>
<path d="M42.8906 11.25H39.4305C39.3673 11.0848 39.2991 10.9188 39.2238 10.7508L41.6721 8.3018C41.8039 8.16994 41.878 7.99113 41.878 7.80469C41.878 7.61824 41.8039 7.43943 41.6721 7.30758L37.6924 3.32789C37.5606 3.19607 37.3818 3.12203 37.1953 3.12203C37.0089 3.12203 36.8301 3.19607 36.6982 3.32789L34.2499 5.77617C34.0819 5.70094 33.9152 5.63555 33.75 5.56945V2.10938C33.75 1.92289 33.6759 1.74405 33.5441 1.61219C33.4122 1.48033 33.2334 1.40625 33.0469 1.40625H27.4219C27.2354 1.40625 27.0566 1.48033 26.9247 1.61219C26.7928 1.74405 26.7188 1.92289 26.7188 2.10938V5.56945C26.5535 5.63273 26.3869 5.70094 26.2188 5.77617L23.7705 3.32789C23.6387 3.19607 23.4599 3.12203 23.2734 3.12203C23.087 3.12203 22.9082 3.19607 22.7763 3.32789L18.7966 7.30758C18.6648 7.43943 18.5908 7.61824 18.5908 7.80469C18.5908 7.99113 18.6648 8.16994 18.7966 8.3018L21.2449 10.7501C21.1697 10.9181 21.1043 11.0848 21.0382 11.25H17.5781C17.3916 11.25 17.2128 11.3241 17.0809 11.4559C16.9491 11.5878 16.875 11.7666 16.875 11.9531V17.5781C16.875 17.7646 16.9491 17.9434 17.0809 18.0753C17.2128 18.2072 17.3916 18.2812 17.5781 18.2812H21.0382C21.1015 18.4465 21.1697 18.6131 21.2449 18.7812L18.7966 21.2295C18.6648 21.3613 18.5908 21.5401 18.5908 21.7266C18.5908 21.913 18.6648 22.0918 18.7966 22.2237L22.7763 26.2034C22.9082 26.3352 23.087 26.4092 23.2734 26.4092C23.4599 26.4092 23.6387 26.3352 23.7705 26.2034L26.2188 23.7551C26.3869 23.8303 26.5535 23.8957 26.7188 23.9618V27.4219C26.7188 27.6084 26.7928 27.7872 26.9247 27.9191C27.0566 28.0509 27.2354 28.125 27.4219 28.125H33.0469C33.2334 28.125 33.4122 28.0509 33.5441 27.9191C33.6759 27.7872 33.75 27.6084 33.75 27.4219V23.9618C33.9152 23.8985 34.0819 23.8303 34.2499 23.7551L36.6982 26.2034C36.8325 26.3304 37.0104 26.4012 37.1953 26.4012C37.3802 26.4012 37.5581 26.3304 37.6924 26.2034L41.6721 22.2237C41.8039 22.0918 41.878 21.913 41.878 21.7266C41.878 21.5401 41.8039 21.3613 41.6721 21.2295L39.2238 18.7805C39.2991 18.6124 39.3645 18.4465 39.4305 18.2812H42.8906C43.0771 18.2812 43.2559 18.2072 43.3878 18.0753C43.5197 17.9434 43.5938 17.7646 43.5938 17.5781V11.9531C43.5938 11.7666 43.5197 11.5878 43.3878 11.4559C43.2559 11.3241 43.0771 11.25 42.8906 11.25ZM42.1875 16.875H38.932C38.7825 16.8751 38.6369 16.9229 38.5165 17.0114C38.396 17.1 38.3068 17.2246 38.262 17.3672C38.1234 17.7962 37.9515 18.2137 37.748 18.6159C37.682 18.7479 37.6592 18.8972 37.6828 19.0429C37.7064 19.1885 37.7752 19.323 37.8795 19.4273L40.1808 21.7266L37.1953 24.712L34.894 22.4107C34.7896 22.3064 34.6551 22.2376 34.5095 22.214C34.3639 22.1904 34.2145 22.2132 34.0826 22.2792C33.6803 22.4828 33.2628 22.6546 32.8338 22.7932C32.6912 22.8381 32.5666 22.9272 32.4781 23.0477C32.3896 23.1682 32.3418 23.3138 32.3416 23.4633V26.7188H28.125V23.4633C28.1249 23.3138 28.0771 23.1682 27.9886 23.0477C27.9 22.9272 27.7754 22.8381 27.6328 22.7932C27.2038 22.6546 26.7863 22.4828 26.3841 22.2792C26.2521 22.2132 26.1028 22.1904 25.9571 22.214C25.8115 22.2376 25.677 22.3064 25.5727 22.4107L23.2734 24.712L20.288 21.7266L22.5893 19.4252C22.6936 19.3209 22.7624 19.1864 22.786 19.0407C22.8096 18.8951 22.7868 18.7458 22.7208 18.6138C22.5172 18.2116 22.3454 17.7941 22.2068 17.3651C22.1619 17.2225 22.0728 17.0978 21.9523 17.0093C21.8318 16.9208 21.6862 16.873 21.5367 16.8729H18.2812V12.6562H21.5367C21.6862 12.6561 21.8318 12.6083 21.9523 12.5198C22.0728 12.4313 22.1619 12.3067 22.2068 12.1641C22.3454 11.7351 22.5172 11.3176 22.7208 10.9153C22.7868 10.7834 22.8096 10.634 22.786 10.4884C22.7624 10.3428 22.6936 10.2083 22.5893 10.1039L20.288 7.80469L23.2734 4.81922L25.5748 7.12055C25.6791 7.22481 25.8136 7.29361 25.9593 7.31721C26.1049 7.34081 26.2542 7.318 26.3862 7.25203C26.7877 7.04858 27.2045 6.87673 27.6328 6.73805C27.7754 6.69319 27.9 6.60405 27.9886 6.48355C28.0771 6.36305 28.1249 6.21748 28.125 6.06797V2.8125H32.3438V6.06797C32.3439 6.21748 32.3917 6.36305 32.4802 6.48355C32.5687 6.60405 32.6933 6.69319 32.8359 6.73805C33.2649 6.87663 33.6824 7.04848 34.0847 7.25203C34.2166 7.318 34.366 7.34081 34.5116 7.31721C34.6572 7.29361 34.7917 7.22481 34.8961 7.12055L37.1953 4.81922L40.1808 7.80469L37.8795 10.106C37.7752 10.2104 37.7064 10.3449 37.6828 10.4905C37.6592 10.6361 37.682 10.7855 37.748 10.9174C37.9515 11.3197 38.1234 11.7372 38.262 12.1662C38.3068 12.3088 38.396 12.4334 38.5165 12.5219C38.6369 12.6104 38.7825 12.6582 38.932 12.6584H42.1875V16.875Z" fill="white"/>
<path d="M30.2344 9.14062C29.1219 9.14063 28.0343 9.47053 27.1093 10.0886C26.1843 10.7067 25.4633 11.5852 25.0376 12.613C24.6118 13.6409 24.5004 14.7719 24.7175 15.863C24.9345 16.9542 25.4702 17.9564 26.2569 18.7431C27.0436 19.5298 28.0459 20.0655 29.137 20.2825C30.2281 20.4996 31.3591 20.3882 32.387 19.9624C33.4148 19.5367 34.2933 18.8157 34.9114 17.8907C35.5295 16.9657 35.8594 15.8781 35.8594 14.7656C35.8577 13.2743 35.2645 11.8445 34.21 10.79C33.1555 9.73547 31.7257 9.1423 30.2344 9.14062ZM30.2344 18.9844C29.4 18.9844 28.5843 18.7369 27.8906 18.2734C27.1968 17.8098 26.6561 17.1509 26.3368 16.3801C26.0175 15.6092 25.9339 14.7609 26.0967 13.9426C26.2595 13.1242 26.6613 12.3725 27.2513 11.7825C27.8413 11.1925 28.593 10.7907 29.4113 10.6279C30.2297 10.4652 31.0779 10.5487 31.8488 10.868C32.6197 11.1873 33.2786 11.728 33.7421 12.4218C34.2057 13.1156 34.4531 13.9312 34.4531 14.7656C34.452 15.8842 34.0072 16.9566 33.2163 17.7475C32.4253 18.5384 31.3529 18.9833 30.2344 18.9844Z" fill="white"/>
<path d="M9.84375 41.4844C10.2609 41.4844 10.6688 41.3607 11.0157 41.1289C11.3625 40.8971 11.6329 40.5677 11.7926 40.1822C11.9522 39.7968 11.994 39.3727 11.9126 38.9635C11.8312 38.5543 11.6303 38.1785 11.3353 37.8834C11.0403 37.5884 10.6644 37.3875 10.2553 37.3062C9.84609 37.2248 9.42196 37.2665 9.03653 37.4262C8.65109 37.5858 8.32165 37.8562 8.08987 38.2031C7.85809 38.55 7.73438 38.9578 7.73438 39.375C7.73438 39.9344 7.95661 40.471 8.3522 40.8666C8.74778 41.2621 9.28431 41.4844 9.84375 41.4844ZM9.84375 38.6719C9.98281 38.6719 10.1188 38.7131 10.2344 38.7904C10.35 38.8676 10.4401 38.9775 10.4934 39.1059C10.5466 39.2344 10.5605 39.3758 10.5334 39.5122C10.5062 39.6486 10.4393 39.7739 10.3409 39.8722C10.2426 39.9705 10.1173 40.0375 9.98092 40.0646C9.84453 40.0918 9.70315 40.0778 9.57467 40.0246C9.44619 39.9714 9.33638 39.8813 9.25912 39.7656C9.18186 39.65 9.14062 39.5141 9.14062 39.375C9.14062 39.1885 9.2147 39.0097 9.34656 38.8778C9.47843 38.746 9.65727 38.6719 9.84375 38.6719Z" fill="white"/>
<path d="M19.6875 14.0625H21.0938V15.4688H19.6875V14.0625Z" fill="white"/>
<path d="M22.2756 21.7265L23.27 20.7321L24.2644 21.7265L23.27 22.7208L22.2756 21.7265Z" fill="white"/>
<path d="M29.5312 23.9062H30.9375V25.3125H29.5312V23.9062Z" fill="white"/>
<path d="M36.1952 21.728L37.1896 20.7336L38.1839 21.728L37.1896 22.7223L36.1952 21.728Z" fill="white"/>
<path d="M39.375 14.0625H40.7812V15.4688H39.375V14.0625Z" fill="white"/>
<path d="M36.1967 7.80828L37.191 6.81391L38.1854 7.80828L37.191 8.80265L36.1967 7.80828Z" fill="white"/>
</svg>
