<svg width="45" height="45" viewBox="0 0 45 45" fill="none" xmlns="http://www.w3.org/2000/svg">
<g clip-path="url(#clip0)">
<path d="M39.5402 9.11125L22.6272 0.0991461C22.3763 -0.0347668 22.0756 -0.0328874 21.8265 0.103845L5.38156 9.11595C5.11185 9.26396 4.94458 9.54682 4.94458 9.85458V21.6267C4.95445 31.3037 10.6878 40.0583 19.5542 43.9352L21.8369 44.9299C22.0502 45.0229 22.2931 45.0234 22.5069 44.9308L25.079 43.8201C34.1099 40.0273 39.9851 31.1881 39.9861 21.3932V9.85458C39.9861 9.54353 39.8146 9.25738 39.5402 9.11125ZM38.3021 21.3932C38.3002 30.5129 32.8285 38.7417 24.4197 42.2709L24.4141 42.2737L22.1742 43.2407L20.228 42.3917C11.9748 38.7831 6.63752 30.6346 6.62812 21.6267V10.3531L22.2367 1.79867L38.3021 10.3592V21.3932Z" fill="white"/>
<path d="M16.0247 21.0807C15.7226 20.7269 15.1911 20.6851 14.8373 20.9872C14.4835 21.2889 14.4417 21.8208 14.7438 22.1741L19.1916 27.3826C19.4886 27.7303 20.0087 27.7778 20.363 27.4893L30.7217 19.0617C31.0826 18.7685 31.1371 18.238 30.8434 17.8771C30.5502 17.5167 30.0198 17.4618 29.6589 17.7554L19.9382 25.6634L16.0247 21.0807Z" fill="white"/>
</g>
<defs>
<clipPath id="clip0">
<rect width="45" height="45" fill="white"/>
</clipPath>
</defs>
</svg>
