<svg width="16" height="16" viewBox="0 0 16 16" fill="none" xmlns="http://www.w3.org/2000/svg">
<path d="M6.14395 7.64017C5.96092 7.4571 5.66411 7.4571 5.48105 7.64017C5.29798 7.82323 5.29798 8.12001 5.48105 8.30307L6.93939 9.76142C7.03092 9.85295 7.15089 9.89873 7.27083 9.89873C7.39076 9.89873 7.51076 9.85298 7.60226 9.76142L10.5189 6.84476C10.702 6.6617 10.702 6.36492 10.5189 6.18185C10.3359 5.99879 10.0391 5.99879 9.85601 6.18185L7.27079 8.76704L6.14395 7.64017Z" fill="#21AA1B"/>
<path d="M13.9347 2.1875C12.5836 2.1875 11.3527 1.44512 10.7223 0.250062C10.6412 0.09625 10.4816 0 10.3077 0H5.69228C5.51841 0 5.35878 0.09625 5.27766 0.250062C4.64734 1.44512 3.41641 2.1875 2.0625 2.1875C1.80362 2.1875 1.59375 2.39737 1.59375 2.65625V7.42972C1.59375 9.34872 2.19334 11.1812 3.32769 12.729C4.46209 14.2768 6.02891 15.4003 7.85884 15.9782C7.90478 15.9927 7.95237 16 8 16C8.04763 16 8.09522 15.9927 8.14116 15.9782C9.97109 15.4003 11.5379 14.2768 12.6723 12.729C13.8067 11.1812 14.4062 9.34872 14.4062 7.42972V2.65625C14.4062 2.39737 14.1936 2.1875 13.9347 2.1875ZM13.4688 7.42972C13.4688 10.8989 11.2773 13.9378 8 15.0383C4.72269 13.9378 2.53125 10.8989 2.53125 7.42972V3.10147C3.94994 2.95747 5.21869 2.16131 5.96494 0.9375H10.0351C10.7809 2.16069 12.0489 2.95666 13.4688 3.10125V7.42972Z" fill="#21AA1B"/>
<path d="M9.67494 2.04713C9.58591 1.93819 9.45262 1.875 9.31194 1.875H6.68803C6.54734 1.875 6.41409 1.93819 6.32509 2.04713C5.66228 2.85809 4.78603 3.45966 3.79109 3.78672C3.59875 3.84994 3.46875 4.02953 3.46875 4.23203V7.42975C3.46875 10.3004 5.17653 12.8675 7.81959 13.9696C7.87734 13.9936 7.93869 14.0057 8 14.0057C8.06131 14.0057 8.12269 13.9936 8.18041 13.9696C10.8235 12.8675 12.5312 10.3004 12.5312 7.42975V4.23234C12.5312 4.02988 12.4013 3.85028 12.2089 3.78703C11.214 3.45984 10.3377 2.85822 9.67494 2.04713ZM11.5938 7.42975C11.5938 9.85488 10.1897 12.0301 8 13.0257C5.81034 12.0301 4.40625 9.85491 4.40625 7.42975V4.56181C5.36825 4.18794 6.22366 3.5895 6.90525 2.8125H9.09472C9.77634 3.58959 10.6317 4.18813 11.5938 4.56206V7.42975Z" fill="#21AA1B"/>
</svg>
