<svg width="52" height="52" viewBox="0 0 52 52" fill="none" xmlns="http://www.w3.org/2000/svg">
<path d="M28.5999 26C28.5999 24.5642 27.4357 23.4 25.9999 23.4C24.5641 23.4 23.3999 24.5642 23.3999 26C23.3999 27.4358 24.5641 28.6 25.9999 28.6C27.4357 28.6 28.5999 27.4358 28.5999 26ZM25.9999 26.8667C25.5213 26.8667 25.1332 26.4786 25.1332 26C25.1332 25.5214 25.5213 25.1333 25.9999 25.1333C26.4785 25.1333 26.8666 25.5214 26.8666 26C26.8666 26.4786 26.4785 26.8667 25.9999 26.8667Z" fill="#24AA2A"/>
<path d="M45.3092 34.1466L32.0494 26.4871C32.0617 26.3275 32.071 26.1663 32.071 25.9975C32.0663 24.5307 31.531 23.1152 30.5632 22.0132C31.5556 20.0213 32.0706 17.8255 32.0667 15.6C32.0667 9.70683 28.3487 4.33333 24.2667 4.33333C23.7881 4.33333 23.4001 4.72138 23.4001 5.19999V20.5321C21.9245 21.235 20.7937 22.5016 20.2626 24.0475C18.0435 24.1816 15.8862 24.8308 13.9611 25.9437C13.929 25.9619 13.8989 25.9835 13.8667 26.0025C13.8659 21.5503 16.3034 17.4548 20.2178 15.333L19.3901 13.8104C14.9183 16.2352 12.1334 20.9134 12.1334 26C12.1334 26.3864 12.1601 26.7668 12.1914 27.1455C11.3421 27.8171 10.5727 28.5843 9.89904 29.432C8.19448 21.4838 12.5507 13.4824 20.1518 10.601L19.5365 8.98108C10.5503 12.3991 5.76883 22.2138 8.61639 31.3968C8.52456 31.5699 8.42765 31.7434 8.34429 31.9169C7.22202 34.3158 7.13527 36.6539 8.10604 38.3301C8.34514 38.7444 8.87538 38.8866 9.29009 38.6471L11.7166 37.2442C17.2991 44.3616 27.2671 46.2884 35.1001 41.7646L34.2334 40.2653C27.2277 44.3062 18.3241 42.6575 13.2299 36.3759L15.5214 35.053C19.2259 39.3563 25.1821 40.9623 30.5475 39.1041L29.9796 37.4651C25.4004 39.0546 20.3143 37.7588 17.0533 34.172L22.574 30.9833C23.5799 31.6833 24.7746 32.0612 26.0001 32.0667C26.3962 32.062 26.791 32.0188 27.1786 31.9384C28.405 33.7958 30.0461 35.3425 31.9724 36.4571C34.0811 37.6898 36.475 38.3508 38.9176 38.375C39.2646 38.375 39.6112 38.3614 39.9577 38.3318C42.5967 38.1037 44.6647 37.0111 45.6317 35.3332C45.7472 35.133 45.7781 34.8956 45.7176 34.673C45.6571 34.45 45.5102 34.2608 45.3092 34.1466ZM25.1334 6.19319C27.7021 6.92656 30.3334 10.7779 30.3334 15.6C30.3372 17.4099 29.953 19.1995 29.2069 20.8487C28.9945 20.7192 28.7749 20.6036 28.548 20.5017C28.4926 20.4758 28.4372 20.4517 28.3817 20.4272C28.1557 20.3294 27.9243 20.2452 27.6886 20.175H27.6797C27.4389 20.1081 27.1939 20.056 26.9463 20.0201C26.8854 20.0103 26.8236 20.0015 26.7618 19.9938C26.5096 19.9579 26.2548 19.9376 26.0001 19.9333C25.7102 19.9333 25.4203 19.9541 25.1334 19.9955V6.19319ZM9.28628 36.6514C9.0912 35.6548 9.17118 34.6235 9.51776 33.6692C9.86476 34.4157 10.2621 35.1377 10.7069 35.8304L9.28628 36.6514ZM12.2062 34.965C11.5152 33.9003 10.9498 32.759 10.5215 31.5639C11.0789 30.6808 11.7487 29.8742 12.5147 29.1641C12.8888 30.7688 13.5468 32.2935 14.4579 33.6667L12.2062 34.965ZM15.9572 32.7983C14.9704 31.3401 14.3149 29.6833 14.0373 27.9449C14.2946 27.7714 14.5582 27.6055 14.8278 27.4473C16.3927 26.5404 18.1336 25.9793 19.9334 25.8015V26C19.936 26.303 19.9618 26.6051 20.0096 26.9039C20.0202 26.9741 20.0303 27.0427 20.0434 27.1121C20.0963 27.402 20.17 27.688 20.2635 27.9673C20.2749 28.0004 20.2906 28.0317 20.3024 28.0643C20.3951 28.3169 20.5043 28.5623 20.6295 28.8002C20.6604 28.8598 20.6901 28.9199 20.7231 28.9787C20.8665 29.2331 21.0278 29.4768 21.2055 29.7083C21.2161 29.7223 21.2228 29.7379 21.2334 29.7519L15.9572 32.7983ZM23.1843 29.2932C22.2224 28.4692 21.6684 27.2666 21.6667 26C21.6667 25.6885 21.701 25.3775 21.7692 25.0737C22.0912 23.6086 23.1483 22.4148 24.563 21.9172C24.7669 21.8457 24.9756 21.7898 25.188 21.7509C25.2849 21.7327 25.3831 21.7229 25.4808 21.7115C25.5917 21.698 25.7039 21.6874 25.8173 21.6823C25.9307 21.6772 26.0572 21.6823 26.177 21.6823C26.2963 21.6823 26.3903 21.6997 26.4969 21.7115C26.7419 21.7403 26.9844 21.7898 27.2214 21.8592C27.2942 21.8799 27.3678 21.8956 27.4389 21.9206C27.5565 21.9612 27.6691 22.0141 27.7855 22.0644C27.9014 22.1148 28.0098 22.1702 28.1181 22.2316C28.2048 22.2777 28.2857 22.3251 28.3661 22.3772C28.5628 22.5033 28.7486 22.6455 28.9217 22.802C29.8209 23.6222 30.3334 24.7829 30.3334 26C30.3355 26.2662 30.3114 26.5315 30.2615 26.793C29.9784 28.3152 28.9048 29.5708 27.4448 30.0862C25.9848 30.602 24.3607 30.2999 23.1843 29.2932ZM39.8045 36.6035C37.3709 36.7627 34.9452 36.1888 32.8407 34.957C31.2741 34.0509 29.9191 32.8208 28.8663 31.349C28.9217 31.3189 28.9682 31.277 29.0228 31.2461C29.2243 31.1297 29.4189 31.0024 29.6056 30.8636C29.6843 30.8056 29.763 30.7485 29.8387 30.6905C30.0613 30.5085 30.2708 30.3113 30.4659 30.1002C30.4866 30.0777 30.5112 30.0587 30.531 30.035C30.7431 29.7942 30.9356 29.5369 31.1074 29.2657C31.1514 29.1963 31.1878 29.1243 31.2297 29.0541C31.3537 28.8416 31.465 28.622 31.5623 28.3964C31.5831 28.3478 31.6135 28.3055 31.6334 28.2568L43.5806 35.1554C42.5158 36.0416 41.1883 36.5511 39.8045 36.6044V36.6035Z" fill="#24AA2A"/>
<path d="M26 0C11.6408 0 0 11.6408 0 26C0 40.3592 11.6408 52 26 52C40.3592 52 52 40.3592 52 26C51.9839 11.6475 40.3525 0.0160808 26 0ZM26 50.2667C12.598 50.2667 1.73333 39.402 1.73333 26C1.73333 12.598 12.598 1.73333 26 1.73333C39.402 1.73333 50.2667 12.598 50.2667 26C50.2514 39.3957 39.3957 50.2514 26 50.2667Z" fill="#24AA2A"/>
<path d="M42.4667 26C42.4667 27.1151 42.3546 28.2268 42.132 29.3194L43.8311 29.666C45.4006 21.9857 41.8849 14.1616 35.1001 10.2354L34.2334 11.7347C39.3196 14.6868 42.4549 20.1191 42.4667 26Z" fill="white"/>
<path d="M38.1333 26H39.8667C39.8646 22.0547 38.1841 18.2961 35.2447 15.6643L34.0886 16.9554C36.6607 19.2588 38.1312 22.5473 38.1333 26Z" fill="#24AA2A"/>
</svg>
