<svg width="60" height="60" viewBox="0 0 60 60" fill="none" xmlns="http://www.w3.org/2000/svg">
<path d="M55.7998 27.1128L54.246 20.8978C54.6708 20.8076 54.9895 20.4307 54.9895 19.9792V18.9771C54.9895 16.8014 53.2194 15.0314 51.0438 15.0314H43.9666V12.9645C43.9666 11.8938 43.0957 11.0229 42.0251 11.0229H5.94984C4.87922 11.0229 4.00828 11.8938 4.00828 12.9645V30C4.00828 30.5188 4.42887 30.9395 4.94777 30.9395C5.46656 30.9395 5.88727 30.5189 5.88727 30V12.9645C5.88727 12.9299 5.91527 12.9019 5.94984 12.9019H42.025C42.0595 12.9019 42.0875 12.9299 42.0875 12.9645V30.0002C42.0875 30.519 42.5081 30.9397 43.027 30.9397C43.5458 30.9397 43.9665 30.5191 43.9665 30.0002V28.9352H55.0488C55.0498 28.9352 55.0505 28.9355 55.0513 28.9355C55.0522 28.9355 55.053 28.9353 55.0539 28.9353C56.4176 28.9363 57.5755 29.8314 57.9732 31.0648H55.052C54.5332 31.0648 54.1125 31.4853 54.1125 32.0042V34.0084C54.1125 35.6315 55.433 36.952 57.0561 36.952H58.1209V41.0856H55.6644C54.8575 38.7555 52.6425 37.0772 50.0415 37.0772C47.4405 37.0772 45.2255 38.7555 44.4186 41.0856H43.9663V34.0083C43.9663 33.4895 43.5457 33.0688 43.0268 33.0688C42.508 33.0688 42.0873 33.4894 42.0873 34.0083V41.0853H22.5957C21.7888 38.7553 19.5738 37.0769 16.9729 37.0769C14.3719 37.0769 12.1568 38.7553 11.35 41.0853H5.94984C5.91527 41.0853 5.88727 41.0573 5.88727 41.0228V38.9559H9.95824C10.477 38.9559 10.8977 38.5353 10.8977 38.0164C10.8977 37.4975 10.4771 37.0769 9.95824 37.0769H0.939492C0.420703 37.0769 0 37.4975 0 38.0164C0 38.5353 0.420586 38.9559 0.939492 38.9559H4.0084V41.0228C4.0084 42.0934 4.87934 42.9643 5.94996 42.9643H11.0246C11.0244 42.9852 11.023 43.0059 11.023 43.0269C11.023 46.3077 13.6922 48.9767 16.9729 48.9767C20.2535 48.9767 22.9227 46.3077 22.9227 43.0269C22.9227 43.0058 22.9213 42.9852 22.9211 42.9643H44.0933C44.0931 42.9852 44.0917 43.0059 44.0917 43.0269C44.0917 46.3077 46.7609 48.9767 50.0415 48.9767C53.3222 48.9767 55.9914 46.3077 55.9914 43.0269C55.9914 43.0058 55.99 42.9852 55.9897 42.9643H59.0604C59.5792 42.9643 59.9999 42.5437 59.9999 42.0248V32.004C60 29.53 58.1746 27.4744 55.7998 27.1128ZM43.9666 16.9103H51.0438C52.1835 16.9103 53.1107 17.8375 53.1107 18.9771V19.0397H43.9666V16.9103ZM43.9666 27.0564V20.9186H52.3145L53.8489 27.0564H43.9666ZM16.9729 47.0981C14.7281 47.0981 12.9019 45.272 12.9019 43.0271C12.9019 40.7823 14.7281 38.9562 16.9729 38.9562C19.2176 38.9562 21.0438 40.7823 21.0438 43.0271C21.0438 45.272 19.2176 47.0981 16.9729 47.0981ZM50.0418 47.0981C47.797 47.0981 45.9708 45.272 45.9708 43.0271C45.9708 40.7823 47.797 38.9562 50.0418 38.9562C52.2865 38.9562 54.1127 40.7823 54.1127 43.0271C54.1127 45.272 52.2865 47.0981 50.0418 47.0981ZM58.1211 35.073H57.0564C56.4693 35.073 55.9916 34.5954 55.9916 34.0083V32.9435H58.121V35.073H58.1211Z" fill="#24AA2A"/>
<path d="M16.9728 41.0856C15.9022 41.0856 15.0312 41.9565 15.0312 43.0271C15.0312 44.0978 15.9022 44.9687 16.9728 44.9687C18.0434 44.9687 18.9144 44.0978 18.9144 43.0271C18.9144 41.9565 18.0434 41.0856 16.9728 41.0856Z" fill="#24AA2A"/>
<path d="M50.0417 41.0856C48.971 41.0856 48.1001 41.9565 48.1001 43.0271C48.1001 44.0978 48.971 44.9687 50.0417 44.9687C51.1123 44.9687 51.9832 44.0978 51.9832 43.0271C51.9832 41.9565 51.1123 41.0856 50.0417 41.0856Z" fill="#24AA2A"/>
<path d="M39.0187 37.0773H24.9895C24.4708 37.0773 24.05 37.4979 24.05 38.0168C24.05 38.5357 24.4706 38.9563 24.9895 38.9563H39.0187C39.5375 38.9563 39.9582 38.5357 39.9582 38.0168C39.9582 37.4979 39.5377 37.0773 39.0187 37.0773Z" fill="#24AA2A"/>
<path d="M14.9687 33.0689H2.94364C2.42485 33.0689 2.00415 33.4895 2.00415 34.0084C2.00415 34.5273 2.42474 34.9479 2.94364 34.9479H14.9687C15.4875 34.9479 15.9082 34.5273 15.9082 34.0084C15.9082 33.4895 15.4875 33.0689 14.9687 33.0689Z" fill="#24AA2A"/>
<path d="M32.6686 20.3168C32.3018 19.95 31.7069 19.95 31.3401 20.3169L22.9855 28.6713L18.6394 24.3252C18.2725 23.9583 17.6776 23.9583 17.3108 24.3252C16.9439 24.6921 16.9439 25.2868 17.3108 25.6538L22.3213 30.6642C22.5047 30.8477 22.7452 30.9394 22.9855 30.9394C23.2259 30.9394 23.4665 30.8477 23.6497 30.6642L32.6685 21.6455C33.0354 21.2784 33.0354 20.6837 32.6686 20.3168Z" fill="#24AA2A"/>
</svg>
