<svg width="52" height="52" viewBox="0 0 52 52" fill="none" xmlns="http://www.w3.org/2000/svg">
<path d="M4.67188 24.9844H23.9688V46.9219C23.9688 49.722 26.2468 52 29.0469 52H43.2656C46.0657 52 48.3438 49.722 48.3438 46.9219V5.07812C48.3438 2.27802 46.0657 0 43.2656 0H29.0469C26.2468 0 23.9688 2.27802 23.9688 5.07812V16.8594H18.5859C18.025 16.8594 17.5703 17.314 17.5703 17.875C17.5703 18.436 18.025 18.8906 18.5859 18.8906H34.125C35.245 18.8906 36.1562 19.8019 36.1562 20.9219C36.1562 22.0438 35.2469 22.9531 34.125 22.9531H5.6875V18.8906H10.4609C11.0219 18.8906 11.4766 18.436 11.4766 17.875C11.4766 17.314 11.0219 16.8594 10.4609 16.8594H4.67188C4.1109 16.8594 3.65625 17.314 3.65625 17.875V23.9688C3.65625 24.5297 4.1109 24.9844 4.67188 24.9844ZM26 5.07812C26 3.39798 27.3667 2.03125 29.0469 2.03125H43.2656C44.9458 2.03125 46.3125 3.39798 46.3125 5.07812V46.9219C46.3125 48.602 44.9458 49.9688 43.2656 49.9688H29.0469C27.3667 49.9688 26 48.602 26 46.9219V24.9844H29.1203C30.5608 27.4715 33.255 29.0469 36.1562 29.0469C40.6365 29.0469 44.2812 25.4021 44.2812 20.9219C44.2812 16.4416 40.6365 12.7969 36.1562 12.7969C33.255 12.7969 30.5608 14.3723 29.1203 16.8594H26V5.07812ZM38.1875 20.9219C38.1875 18.6819 36.3649 16.8594 34.125 16.8594H31.6177C32.7587 15.5914 34.4071 14.8281 36.1562 14.8281C39.5165 14.8281 42.25 17.5616 42.25 20.9219C42.25 24.2822 39.5165 27.0156 36.1562 27.0156C34.4071 27.0156 32.7587 26.2523 31.6177 24.9844H34.125C36.3693 24.9844 38.1875 23.1666 38.1875 20.9219Z" fill="white"/>
<path d="M36.1562 33.1094C34.4761 33.1094 33.1094 34.4761 33.1094 36.1562C33.1094 37.4801 33.9584 38.6092 35.1406 39.0286V42.25C35.1406 42.811 35.5953 43.2656 36.1562 43.2656C36.7172 43.2656 37.1719 42.811 37.1719 42.25V39.0286C38.3541 38.6092 39.2031 37.4801 39.2031 36.1562C39.2031 34.4761 37.8364 33.1094 36.1562 33.1094ZM36.1562 37.1719C35.5961 37.1719 35.1406 36.7164 35.1406 36.1562C35.1406 35.5961 35.5961 35.1406 36.1562 35.1406C36.7164 35.1406 37.1719 35.5961 37.1719 36.1562C37.1719 36.7164 36.7164 37.1719 36.1562 37.1719Z" fill="white"/>
<path d="M14.5234 18.8906C15.084 18.8906 15.5391 18.4356 15.5391 17.875C15.5391 17.3144 15.084 16.8594 14.5234 16.8594C13.9629 16.8594 13.5078 17.3144 13.5078 17.875C13.5078 18.4356 13.9629 18.8906 14.5234 18.8906Z" fill="white"/>
</svg>
