<svg width="44" height="44" viewBox="0 0 44 44" fill="none" xmlns="http://www.w3.org/2000/svg">
<path d="M4.97168 13.4424C4.97168 16.7074 5.32699 19.1561 6.0376 20.7886C6.74821 22.4211 7.90055 23.2373 9.49463 23.2373C12.6444 23.2373 14.2192 19.9723 14.2192 13.4424C14.2192 6.95085 12.6444 3.70508 9.49463 3.70508C7.90055 3.70508 6.74821 4.51172 6.0376 6.125C5.32699 7.73828 4.97168 10.1774 4.97168 13.4424ZM18.166 13.4424C18.166 17.8213 17.4266 21.1343 15.9478 23.3813C14.4881 25.6092 12.3371 26.7231 9.49463 26.7231C6.80583 26.7231 4.7124 25.5804 3.21436 23.2949C1.73551 21.0094 0.996094 17.7253 0.996094 13.4424C0.996094 9.08268 1.70671 5.7985 3.12793 3.58984C4.56836 1.38118 6.69059 0.276855 9.49463 0.276855C12.2795 0.276855 14.4209 1.4196 15.9189 3.70508C17.417 5.99056 18.166 9.23633 18.166 13.4424ZM30.3232 30.3242C30.3232 33.6084 30.6785 36.0667 31.3892 37.6992C32.0998 39.3125 33.2617 40.1191 34.875 40.1191C36.4883 40.1191 37.679 39.3221 38.4473 37.728C39.2155 36.1147 39.5996 33.6468 39.5996 30.3242C39.5996 27.04 39.2155 24.6105 38.4473 23.0356C37.679 21.4416 36.4883 20.6445 34.875 20.6445C33.2617 20.6445 32.0998 21.4416 31.3892 23.0356C30.6785 24.6105 30.3232 27.04 30.3232 30.3242ZM43.5464 30.3242C43.5464 34.6839 42.807 37.9873 41.3281 40.2344C39.8685 42.4622 37.7174 43.5762 34.875 43.5762C32.1478 43.5762 30.0448 42.4334 28.5659 40.1479C27.1063 37.8625 26.3765 34.5879 26.3765 30.3242C26.3765 25.9645 27.0871 22.6803 28.5083 20.4717C29.9487 18.263 32.071 17.1587 34.875 17.1587C37.6022 17.1587 39.7244 18.2918 41.2417 20.5581C42.7782 22.8052 43.5464 26.0605 43.5464 30.3242ZM36.1138 0.881836L12.75 43H8.51514L31.8789 0.881836H36.1138Z" fill="white"/>
</svg>
