<svg width="51" height="51" viewBox="0 0 51 51" fill="none" xmlns="http://www.w3.org/2000/svg">
<g clip-path="url(#clip0)">
<path d="M50.5801 14.5678L25.9301 0.117744C25.6708 -0.0335627 25.3521 -0.0386428 25.0895 0.106687L0.439477 13.7068C0.16834 13.8555 0 14.1411 0 14.4504V50.1504C0 50.6205 0.380807 51.0004 0.849967 51.0004H5.1C5.56916 51.0004 5.94997 50.6205 5.94997 50.1504V20.4005H45.0499V50.1505C45.0499 50.6206 45.4298 51.0005 45.8999 51.0005H50.1499C50.62 51.0005 50.9999 50.6206 50.9999 50.1505V15.3005C51 14.9987 50.8402 14.7199 50.5801 14.5678ZM49.3 49.3005H46.75V19.5504C46.75 19.0813 46.3701 18.7005 45.9 18.7005H5.1C4.63084 18.7005 4.25003 19.0813 4.25003 19.5504V49.3005H1.70003V14.952L25.4872 1.82794L49.3 15.7875V49.3005Z" fill="#24AA2A"/>
<path d="M42.5002 39.0998H32.3002C31.8301 39.0998 31.4502 39.4797 31.4502 39.9497V50.1497C31.4502 50.6198 31.8301 50.9997 32.3002 50.9997H42.5002C42.9702 50.9997 43.3501 50.6198 43.3501 50.1497V39.9497C43.3501 39.4797 42.9702 39.0998 42.5002 39.0998ZM41.6501 49.2998H33.1501V40.7998H41.6501V49.2998Z" fill="#24AA2A"/>
<path d="M38.2499 39.9497V42.4997H36.5499V39.9497H34.8499V43.3497C34.8499 43.8198 35.2298 44.1997 35.6998 44.1997H39.0998C39.5698 44.1997 39.9498 43.8198 39.9498 43.3497V39.9497H38.2499Z" fill="#24AA2A"/>
<path d="M32.3 39.0998H22.1C21.6308 39.0998 21.25 39.4797 21.25 39.9497V50.1497C21.25 50.6198 21.6308 50.9997 22.1 50.9997H32.3C32.77 50.9997 33.1499 50.6198 33.1499 50.1497V39.9497C33.1499 39.4797 32.77 39.0998 32.3 39.0998ZM31.4499 49.2998H22.9499V40.7998H31.4499V49.2998Z" fill="#24AA2A"/>
<path d="M28.05 39.9497V42.4997H26.3499V39.9497H24.6499V43.3497C24.6499 43.8198 25.0307 44.1997 25.4999 44.1997H28.8998C29.3699 44.1997 29.7498 43.8198 29.7498 43.3497V39.9497H28.05Z" fill="#24AA2A"/>
<path d="M42.5002 28.8998H32.3002C31.8301 28.8998 31.4502 29.2797 31.4502 29.7497V39.9497C31.4502 40.4198 31.8301 40.7997 32.3002 40.7997H42.5002C42.9702 40.7997 43.3501 40.4198 43.3501 39.9497V29.7497C43.3501 29.2797 42.9702 28.8998 42.5002 28.8998ZM41.6501 39.0998H33.1501V30.5998H41.6501V39.0998Z" fill="#24AA2A"/>
<path d="M38.2499 29.7497V32.2997H36.5499V29.7497H34.8499V33.1497C34.8499 33.6198 35.2298 33.9997 35.6998 33.9997H39.0998C39.5698 33.9997 39.9498 33.6198 39.9498 33.1497V29.7497H38.2499Z" fill="#24AA2A"/>
<path d="M45.9001 25.4998H5.1001V27.1998H45.9001V25.4998Z" fill="#24AA2A"/>
<path d="M45.9001 22.0997H5.1001V23.7998H45.9001V22.0997Z" fill="#24AA2A"/>
<path d="M29.7501 11.8997H21.2501C20.781 11.8997 20.4001 12.2805 20.4001 12.7497V16.1497C20.4001 16.6188 20.781 16.9996 21.2501 16.9996H29.7501C30.2201 16.9996 30.6 16.6188 30.6 16.1497V12.7497C30.6 12.2805 30.2201 11.8997 29.7501 11.8997ZM28.9 15.2998H22.1V13.5998H28.9V15.2998Z" fill="#24AA2A"/>
</g>
<defs>
<clipPath id="clip0">
<rect width="51" height="51" fill="#24AA2A"/>
</clipPath>
</defs>
</svg>
