<svg width="52" height="52" viewBox="0 0 52 52" fill="none" xmlns="http://www.w3.org/2000/svg">
<g clip-path="url(#clip0)">
<path d="M46.0415 4.36719H5.95847C2.67157 4.36719 0 7.03876 0 10.3257V41.7422C0 45.0291 2.67157 47.7007 5.95847 47.7007H46.0415C49.3284 47.7007 52 45.0291 52 41.7422V10.3257C52 7.03876 49.3284 4.36719 46.0415 4.36719V4.36719ZM48.75 41.7422C48.75 43.2351 47.5344 44.4507 46.0415 44.4507H5.95847C4.46558 44.4507 3.25 43.2351 3.25 41.7422V10.3257C3.25 8.83276 4.46558 7.61719 5.95847 7.61719H46.0415C47.5344 7.61719 48.75 8.83276 48.75 10.3257V41.7422Z" fill="#24AA2A"/>
<path d="M15.7085 10.8672H12.4585C9.17157 10.8672 6.5 13.5388 6.5 16.8257V20.0757C6.5 20.9727 7.228 21.7007 8.125 21.7007C9.022 21.7007 9.75 20.9727 9.75 20.0757V16.8257C9.75 15.3328 10.9656 14.1172 12.4585 14.1172H15.7085C16.6055 14.1172 17.3335 13.3892 17.3335 12.4922C17.3335 11.5952 16.6055 10.8672 15.7085 10.8672Z" fill="#24AA2A"/>
<path d="M43.875 30.3672C42.978 30.3672 42.25 31.0952 42.25 31.9922V35.2422C42.25 36.7351 41.0344 37.9507 39.5415 37.9507H36.2915C35.3945 37.9507 34.6665 38.6786 34.6665 39.5757C34.6665 40.4727 35.3945 41.2007 36.2915 41.2007H39.5415C42.8284 41.2007 45.5 38.5291 45.5 35.2422V31.9922C45.5 31.0952 44.772 30.3672 43.875 30.3672Z" fill="#24AA2A"/>
</g>
<defs>
<clipPath id="clip0">
<rect width="52" height="52" fill="#24AA2A"/>
</clipPath>
</defs>
</svg>
