<svg width="22" height="22" viewBox="0 0 22 22" fill="none" xmlns="http://www.w3.org/2000/svg">
<g clip-path="url(#clip0)">
<path d="M18.7782 3.2218C16.7005 1.14421 13.9382 0 11 0C8.0618 0 5.29947 1.14421 3.2218 3.2218C1.14421 5.29947 0 8.0618 0 11V22H22V11C22 8.0618 20.8558 5.29947 18.7782 3.2218ZM20.689 10.3555H11.6445V1.31098C16.4866 1.62989 20.3701 5.51336 20.689 10.3555ZM3.22266 11.6445V15.5332H1.28906V11.6445H3.22266ZM4.51172 11.6445H6.44531V15.5332H4.51172V11.6445ZM14.2656 11.6445V13.5781H7.73438V11.6445H14.2656ZM6.44531 16.8223V20.7109H4.51172V16.8223H6.44531ZM7.73438 14.8672H14.2656V20.7109H7.73438V14.8672ZM15.5547 16.8223H17.4883V20.7109H15.5547V16.8223ZM15.5547 15.5332V11.6445H17.4883V15.5332H15.5547ZM18.7773 11.6445H20.7109V15.5332H18.7773V11.6445ZM10.3555 1.31098V10.3555H1.31098C1.62989 5.51336 5.51336 1.62989 10.3555 1.31098ZM1.28906 16.8223H3.22266V20.7109H1.28906V16.8223ZM18.7773 20.7109V16.8223H20.7109V20.7109H18.7773Z" fill="#333333"/>
</g>
<defs>
<clipPath id="clip0">
<rect width="22" height="22" fill="white"/>
</clipPath>
</defs>
</svg>
