<svg width="21" height="21" viewBox="0 0 21 21" fill="none" xmlns="http://www.w3.org/2000/svg">
<g clip-path="url(#clip0)">
<path d="M14.2463 6.36353C14.02 6.36353 13.8362 6.54681 13.8362 6.77352C13.8362 7.00007 14.02 7.18368 14.2463 7.18368C14.4732 7.18368 14.6565 7.00007 14.6565 6.77352C14.6565 6.54681 14.4732 6.36353 14.2463 6.36353Z" fill="#333333"/>
<path d="M6.79395 13.8157C6.56708 13.8157 6.38379 13.9994 6.38379 14.2258C6.38379 14.4527 6.56708 14.636 6.79395 14.636C7.02033 14.636 7.2041 14.4527 7.2041 14.2258C7.2041 13.9994 7.02033 13.8157 6.79395 13.8157Z" fill="#333333"/>
<path d="M20.5112 2.5233C20.3728 2.4911 20.2273 2.53292 20.1273 2.63385L18.4269 4.3477H17.6118L16.7144 3.41796V2.59139L18.3904 0.890367C18.4896 0.78975 18.53 0.645074 18.4971 0.507447C18.4644 0.369981 18.3632 0.25911 18.2292 0.213929C17.8082 0.0719765 17.3676 3.89122e-05 16.9195 3.89122e-05C15.5836 3.89122e-05 14.3699 0.622964 13.5897 1.70908C12.8594 2.72582 12.6343 3.97183 12.9568 5.16433L9.93558 8.18554L4.90219 3.14062V2.15048C4.90219 2.00644 4.82656 1.87282 4.70304 1.7988L1.80294 0.0585182C1.64144 -0.0384133 1.43492 -0.0129387 1.30194 0.120202L0.141968 1.28002C0.0089874 1.41316 -0.0164871 1.61968 0.0802842 1.78118L1.82025 4.68127C1.89427 4.8048 2.02773 4.88026 2.17176 4.88042L3.16159 4.88074L8.19546 9.92566L5.18577 12.9353C3.99327 12.613 2.74662 12.8384 1.7294 13.5692C0.643929 14.3489 0.0214844 15.5623 0.0214844 16.8982C0.0214844 17.3461 0.093422 17.7869 0.235375 18.2078C0.280716 18.3425 0.392708 18.4443 0.531136 18.4763C0.669724 18.5085 0.815041 18.4667 0.915177 18.3658L2.6154 16.6521H3.43508L4.36898 17.586V18.4057L2.6553 20.1059C2.55436 20.206 2.51254 20.3513 2.54475 20.4899C2.57679 20.6283 2.67853 20.7403 2.81327 20.7857C3.23416 20.9276 3.67492 20.9996 4.12289 20.9996C5.45878 20.9996 6.67195 20.377 7.45189 19.2915C8.18264 18.2743 8.40806 17.0278 8.08571 15.8353L10.5029 13.4181L11.0566 14.0195L10.8025 14.2735C10.6423 14.4337 10.6423 14.6934 10.8025 14.8536C10.9627 15.0137 11.2223 15.0137 11.3827 14.8536L11.6127 14.6236L16.8079 20.2667C16.8118 20.2709 16.8158 20.2749 16.8198 20.2789C17.7811 21.2402 19.3386 21.2405 20.3004 20.2788C21.2594 19.3192 21.2594 17.7579 20.3004 16.7983C20.2962 16.7942 20.2919 16.7902 20.2875 16.7862L14.6356 11.6009L14.8631 11.3734C15.0233 11.2133 15.0233 10.9536 14.8631 10.7934C14.7028 10.6332 14.4433 10.6332 14.2829 10.7934L14.0306 11.0459L13.428 10.4928L15.8569 8.06394C16.2022 8.15622 16.5585 8.20301 16.9195 8.20301C19.1811 8.20301 21.0209 6.36307 21.0209 4.1016C21.0209 3.65348 20.9489 3.21288 20.807 2.79183C20.7616 2.65708 20.6496 2.55535 20.5112 2.5233ZM3.62205 4.18091C3.54515 4.10385 3.44084 4.06459 3.3319 4.06459L2.40424 4.06427L0.948502 1.63378L1.65554 0.926736L4.08187 2.38279V3.31045C4.08187 3.41908 4.12497 3.52322 4.20172 3.60012L9.35559 8.76569L8.77544 9.34568L3.62205 4.18091ZM14.0549 12.1815L19.7261 17.3843C20.3596 18.0245 20.3577 19.0611 19.7202 19.6989C19.0813 20.3379 18.0469 20.3398 17.4054 19.7045L12.1932 14.0429L14.0549 12.1815ZM13.4499 11.6264L11.6371 13.4389L11.0834 12.8375L12.8474 11.0733L13.4499 11.6264ZM16.9195 7.3827C16.5607 7.3827 16.2079 7.32518 15.8712 7.21174C15.7236 7.16224 15.5605 7.20037 15.4503 7.31044C13.394 9.36667 8.96338 13.7972 7.33188 15.4288C7.22165 15.539 7.18336 15.7021 7.23319 15.8499C7.57413 16.8623 7.41103 17.9421 6.78554 18.8129C6.16182 19.6811 5.19122 20.1793 4.12289 20.1793C4.00289 20.1793 3.88352 20.1727 3.76528 20.16L5.06801 18.8674C5.14556 18.7905 5.1893 18.6857 5.1893 18.5763V17.416C5.1893 17.3072 5.14604 17.2029 5.06913 17.126L3.8949 15.9518C3.818 15.8749 3.71369 15.8316 3.60491 15.8316H2.44461C2.33518 15.8316 2.2304 15.8753 2.15334 15.9529L0.860863 17.2556C0.848046 17.1374 0.841637 17.018 0.841637 16.898C0.841637 15.8295 1.33959 14.8591 2.20797 14.2354C3.07859 13.6099 4.15862 13.4466 5.17119 13.7877C5.31875 13.8375 5.48185 13.7992 5.59208 13.689C5.61467 13.6666 13.7047 5.5764 13.7105 5.57064C13.8207 5.46041 13.8588 5.29747 13.8092 5.14975C13.4681 4.13733 13.6308 3.05779 14.2558 2.18765C14.88 1.31863 15.8508 0.820352 16.9193 0.820352C17.043 0.820352 17.1659 0.827241 17.2876 0.840699L16.012 2.13542C15.9364 2.21216 15.8941 2.3155 15.8941 2.42317V3.58346C15.8941 3.68984 15.9352 3.7919 16.0091 3.86833L17.1423 5.04256C17.2195 5.12267 17.3261 5.16785 17.4374 5.16785H18.5977C18.707 5.16785 18.8118 5.12427 18.8888 5.04657L20.1813 3.744C20.1941 3.86224 20.2005 3.9816 20.2005 4.1016C20.2005 5.91078 18.7286 7.3827 16.9195 7.3827Z" fill="#333333"/>
<path d="M12.7963 7.64348L7.66374 12.776C7.50369 12.9361 7.50369 13.1958 7.66374 13.356C7.82396 13.5162 8.08367 13.5162 8.24389 13.356L13.3765 8.22347C13.5367 8.06341 13.5367 7.8037 13.3765 7.64348C13.2162 7.48326 12.9565 7.48326 12.7963 7.64348Z" fill="#333333"/>
<path d="M17.9794 18.539C18.1397 18.6988 18.3994 18.6988 18.5596 18.5381C18.7195 18.3777 18.719 18.118 18.5586 17.9581L14.8616 14.2729C14.7012 14.113 14.4414 14.1135 14.2816 14.2739C14.1216 14.4344 14.1221 14.694 14.2824 14.8539L17.9794 18.539Z" fill="#333333"/>
</g>
<defs>
<clipPath id="clip0">
<rect width="20.959" height="21" fill="white"/>
</clipPath>
</defs>
</svg>
