<svg width="32" height="11" viewBox="0 0 32 11" fill="none" xmlns="http://www.w3.org/2000/svg">
<path d="M2.43535 2.17273C3.09633 1.28193 3.85173 0.0793532 5.40976 0.0793532C8.00648 0.0348134 10.3199 -0.276965 12.6333 0.747451C14.5691 2.17273 12.8222 4.93419 10.792 5.33505C11.5002 5.91407 12.114 6.76033 11.8779 7.69566C11.2642 10.4126 8.43139 10.8135 6.16517 10.9025C4.41829 10.9025 2.52977 11.1252 0.877318 10.6353C0.711759 10.5814 0.559296 10.4968 0.428898 10.3865C0.298499 10.2762 0.192799 10.1425 0.118015 9.99306C0.0432305 9.84366 0.000873044 9.68166 -0.006566 9.51659C-0.014005 9.35151 0.0136246 9.18671 0.0746975 9.03186C0.779901 7.2637 1.6324 5.55098 2.6242 3.90978C3.33239 2.84082 4.89042 3.1526 6.02353 3.01898C5.83468 3.3753 5.45697 3.99886 5.26812 4.35518C6.73173 4.39972 8.38418 4.66696 9.70614 3.86524C10.1311 3.598 10.4615 2.97444 10.1783 2.52904C9.65893 1.95003 8.76188 2.03911 8.05369 1.95003C6.17767 1.89705 4.30004 1.97148 2.43535 2.17273ZM3.47403 8.31922C3.23797 8.98732 4.37108 8.8537 4.79599 8.94278C6.30681 9.12094 8.57303 8.89824 9.04516 7.42842C9.07538 7.32015 9.08214 7.20724 9.06503 7.09645C9.04793 6.98565 9.0073 6.87925 8.94559 6.78361C8.88388 6.68797 8.80236 6.60506 8.70589 6.53983C8.60943 6.47461 8.50001 6.42841 8.38418 6.40401C7.21906 6.17427 6.01965 6.14409 4.84321 6.31493C3.94616 6.62671 3.7101 7.60658 3.47403 8.31922Z" fill="#B98D03"/>
<path d="M15.0893 2.21719C15.0325 2.21781 14.9764 2.20535 14.9259 2.18089C14.8754 2.15643 14.832 2.1207 14.7994 2.07681C14.7668 2.03293 14.7461 1.9822 14.739 1.92904C14.732 1.87589 14.7388 1.82191 14.7588 1.77179C15.1365 1.01461 15.6559 0.257434 16.6001 0.257434C19.0552 0.168354 21.5103 0.168354 23.9654 0.257434C24.0499 0.256498 24.1334 0.275508 24.2082 0.312737C24.283 0.349966 24.3467 0.404235 24.3936 0.470612C24.4405 0.536988 24.4691 0.61337 24.4768 0.692817C24.4844 0.772263 24.4709 0.852257 24.4375 0.925531C23.8709 2.03903 23.0683 3.10798 22.9739 4.39964C25.3817 3.55338 26.7509 1.28185 29.1116 0.257434C29.9953 0.0642381 30.9123 0.0490612 31.8027 0.212894C31.8484 0.220703 31.8907 0.241081 31.9242 0.271472C31.9578 0.301862 31.981 0.340911 31.9911 0.383723C32.0012 0.426535 31.9977 0.471203 31.9809 0.512124C31.9642 0.553046 31.9351 0.5884 31.8971 0.613752C30.0558 1.90541 28.2145 3.15252 26.5149 4.5778C28.8283 6.00307 27.223 8.85362 28.1201 10.9025C27.1286 10.7688 25.7594 11.3033 25.0512 10.4125C24.8624 9.34356 25.2401 8.18552 25.0512 7.11657C25.0123 6.90387 24.9188 6.70339 24.7789 6.53259C24.639 6.3618 24.457 6.22588 24.2486 6.13669C23.4964 5.92178 22.6961 5.90637 21.9352 6.09215C20.7549 7.29473 20.5188 9.07632 19.4801 10.4125C18.6775 11.2142 17.4027 10.947 16.3641 10.9915C17.7805 8.18552 19.1968 5.37951 20.6132 2.61804C18.9608 1.94995 16.9778 2.17265 15.0893 2.21719Z" fill="#B98D03"/>
<path d="M14.5228 5.0233C13.248 4.39974 14.3339 3.41986 15.1837 3.15262C16.249 3.03332 17.3234 3.00351 18.3942 3.06354C17.2611 5.42415 16.128 7.8293 14.9949 10.1899C14.9427 10.3126 14.8595 10.4214 14.7525 10.5068C14.6455 10.5922 14.518 10.6516 14.3811 10.6799C13.6247 10.859 12.8476 10.9488 12.0677 10.9471C12.0165 10.9489 11.9657 10.9382 11.9201 10.9162C11.8746 10.8942 11.8357 10.8615 11.8073 10.8213C11.7789 10.7811 11.7619 10.7348 11.7579 10.6866C11.7539 10.6384 11.763 10.5901 11.7844 10.5462C12.6814 8.67556 13.5785 6.84943 14.5228 5.0233Z" fill="#B98D03"/>
</svg>
