<svg width="26" height="26" viewBox="0 0 26 26" fill="none" xmlns="http://www.w3.org/2000/svg">
<path d="M24.1799 11.7489L23.5066 9.05574C23.6907 9.01664 23.8288 8.85333 23.8288 8.65767V8.22344C23.8288 7.28063 23.0617 6.51364 22.119 6.51364H19.0522V5.61796C19.0522 5.15402 18.6748 4.77661 18.2109 4.77661H2.57827C2.11433 4.77661 1.73692 5.15402 1.73692 5.61796V13C1.73692 13.2248 1.91918 13.4071 2.14404 13.4071C2.36884 13.4071 2.55115 13.2249 2.55115 13V5.61796C2.55115 5.60297 2.56329 5.59084 2.57827 5.59084H18.2108C18.2258 5.59084 18.2379 5.60297 18.2379 5.61796V13.0001C18.2379 13.2249 18.4202 13.4072 18.645 13.4072C18.8699 13.4072 19.0522 13.225 19.0522 13.0001V12.5386H23.8545C23.8549 12.5386 23.8552 12.5387 23.8556 12.5387C23.856 12.5387 23.8563 12.5387 23.8567 12.5387C24.4476 12.5391 24.9494 12.927 25.1217 13.4614H23.8559C23.6311 13.4614 23.4487 13.6437 23.4487 13.8685V14.737C23.4487 15.4404 24.021 16.0126 24.7243 16.0126H25.1857V17.8038H24.1212C23.7716 16.7941 22.8118 16.0668 21.6847 16.0668C20.5576 16.0668 19.5977 16.7941 19.2481 17.8038H19.0521V14.7369C19.0521 14.5121 18.8698 14.3298 18.6449 14.3298C18.4201 14.3298 18.2378 14.5121 18.2378 14.7369V17.8037H9.79149C9.44181 16.794 8.48199 16.0667 7.3549 16.0667C6.22781 16.0667 5.26795 16.794 4.91832 17.8037H2.57827C2.56329 17.8037 2.55115 17.7915 2.55115 17.7766V16.8809H4.31524C4.54005 16.8809 4.72235 16.6987 4.72235 16.4738C4.72235 16.249 4.5401 16.0667 4.31524 16.0667H0.407113C0.182305 16.0667 0 16.249 0 16.4738C0 16.6987 0.182254 16.8809 0.407113 16.8809H1.73697V17.7766C1.73697 18.2405 2.11438 18.6179 2.57832 18.6179H4.77735C4.77725 18.6269 4.77664 18.6359 4.77664 18.645C4.77664 20.0667 5.93328 21.2233 7.3549 21.2233C8.77652 21.2233 9.93317 20.0667 9.93317 18.645C9.93317 18.6359 9.93256 18.6269 9.93246 18.6179H19.1071C19.107 18.6269 19.1064 18.6359 19.1064 18.645C19.1064 20.0667 20.263 21.2233 21.6847 21.2233C23.1063 21.2233 24.2629 20.0667 24.2629 18.645C24.2629 18.6359 24.2623 18.6269 24.2622 18.6179H25.5928C25.8176 18.6179 25.9999 18.4356 25.9999 18.2108V13.8684C26 12.7963 25.209 11.9056 24.1799 11.7489ZM19.0522 7.32781H22.119C22.6128 7.32781 23.0146 7.72959 23.0146 8.22344V8.25056H19.0522V7.32781ZM19.0522 11.7245V9.06473H22.6696L23.3345 11.7245H19.0522ZM7.3549 20.4092C6.38219 20.4092 5.59081 19.6179 5.59081 18.6451C5.59081 17.6724 6.38219 16.881 7.3549 16.881C8.32762 16.881 9.11899 17.6724 9.11899 18.6451C9.11899 19.6179 8.32762 20.4092 7.3549 20.4092ZM21.6848 20.4092C20.712 20.4092 19.9207 19.6179 19.9207 18.6451C19.9207 17.6724 20.712 16.881 21.6848 16.881C22.6575 16.881 23.4489 17.6724 23.4489 18.6451C23.4489 19.6179 22.6575 20.4092 21.6848 20.4092ZM25.1858 15.1983H24.7244C24.47 15.1983 24.263 14.9914 24.263 14.7369V14.2755H25.1858V15.1983H25.1858Z" fill="#21AA1B"/>
<path d="M7.35477 17.8038C6.89083 17.8038 6.51343 18.1812 6.51343 18.6452C6.51343 19.1091 6.89083 19.4865 7.35477 19.4865C7.81871 19.4865 8.19612 19.1091 8.19612 18.6452C8.19612 18.1812 7.81871 17.8038 7.35477 17.8038Z" fill="#21AA1B"/>
<path d="M21.6849 17.8038C21.2209 17.8038 20.8435 18.1812 20.8435 18.6452C20.8435 19.1091 21.2209 19.4865 21.6849 19.4865C22.1488 19.4865 22.5262 19.1091 22.5262 18.6452C22.5262 18.1812 22.1488 17.8038 21.6849 17.8038Z" fill="#21AA1B"/>
<path d="M16.9081 16.0668H10.8287C10.6039 16.0668 10.4216 16.249 10.4216 16.4739C10.4216 16.6987 10.6039 16.881 10.8287 16.881H16.9081C17.1329 16.881 17.3152 16.6987 17.3152 16.4739C17.3152 16.249 17.1329 16.0668 16.9081 16.0668Z" fill="#21AA1B"/>
<path d="M6.48638 14.3298H1.27552C1.05071 14.3298 0.868408 14.5121 0.868408 14.7369C0.868408 14.9618 1.05066 15.1441 1.27552 15.1441H6.48638C6.71119 15.1441 6.8935 14.9618 6.8935 14.7369C6.8935 14.5121 6.71119 14.3298 6.48638 14.3298Z" fill="#21AA1B"/>
<path d="M14.1564 8.80389C13.9974 8.64495 13.7396 8.64495 13.5807 8.80395L9.96036 12.4242L8.07703 10.5409C7.91804 10.3819 7.66027 10.3819 7.50133 10.5409C7.34233 10.6999 7.34233 10.9576 7.50133 11.1166L9.67253 13.2878C9.75201 13.3673 9.85621 13.407 9.96036 13.407C10.0645 13.407 10.1688 13.3673 10.2482 13.2878L14.1563 9.37965C14.3153 9.22061 14.3153 8.96289 14.1564 8.80389Z" fill="#21AA1B"/>
</svg>
