<svg width="33" height="33" viewBox="0 0 33 33" fill="none" xmlns="http://www.w3.org/2000/svg">
<g clip-path="url(#clip0)">
<path d="M2.75002 33L29.15 33C31.2753 32.9976 32.9976 31.2753 33 29.15L33 2.75002C32.9982 1.23196 31.768 0.00180435 30.25 0H26.95C25.4319 0.00180435 24.2018 1.23196 24.2 2.75002L24.2 22.55C24.199 23.4609 23.4608 24.1991 22.55 24.2L2.74996 24.2C1.23189 24.2018 0.00174332 25.432 -6.10352e-05 26.95V30.25C0.00180435 31.768 1.23196 32.9982 2.75002 33ZM1.10002 26.95C1.10099 26.0391 1.83917 25.3009 2.75002 25.3L22.55 25.3C24.0681 25.2982 25.2982 24.068 25.3 22.55L25.3 2.74996C25.301 1.8391 26.0392 1.10092 26.95 1.09996H30.25C31.1609 1.10092 31.8991 1.8391 31.9 2.74996L31.9 29.15C31.8982 30.668 30.6681 31.8982 29.15 31.9L2.75002 31.9C1.83917 31.899 1.10099 31.1608 1.10002 30.25V26.95Z" fill="#21AA1B"/>
<path d="M4.40012 30.8C5.61513 30.8 6.6001 29.8151 6.6001 28.6001C6.6001 27.3851 5.61513 26.4001 4.40012 26.4001C3.18511 26.4001 2.20014 27.3851 2.20014 28.6001C2.20137 29.8145 3.18563 30.7988 4.40012 30.8ZM4.40012 27.5C5.00765 27.5 5.50014 27.9925 5.50014 28.6001C5.50014 29.2076 5.00759 29.7 4.40012 29.7C3.79265 29.7 3.3001 29.2075 3.3001 28.6C3.30081 27.9928 3.79284 27.5007 4.40012 27.5Z" fill="#21AA1B"/>
<path d="M28.6001 30.8C29.8151 30.8 30.8 29.8151 30.8 28.6001C30.8 27.3851 29.8151 26.4 28.6001 26.4C27.385 26.4 26.4001 27.385 26.4001 28.6C26.4015 29.8145 27.3856 30.7986 28.6001 30.8ZM28.6001 27.5C29.2076 27.5 29.7001 27.9925 29.7001 28.6001C29.7001 29.2076 29.2076 29.7 28.6001 29.7C27.9925 29.7 27.5 29.2075 27.5 28.6C27.5007 27.9928 27.9929 27.5006 28.6001 27.5Z" fill="#21AA1B"/>
<path d="M28.6001 18.7C29.8151 18.7 30.8 17.715 30.8 16.5C30.8 15.285 29.8151 14.3 28.6001 14.3C27.3851 14.3 26.4001 15.285 26.4001 16.5C26.4015 17.7144 27.3856 18.6986 28.6001 18.7ZM28.6001 15.4C29.2076 15.4 29.7001 15.8924 29.7001 16.5C29.7001 17.1075 29.2076 17.6 28.6001 17.6C27.9925 17.6 27.5001 17.1075 27.5001 16.5C27.5007 15.8927 27.9929 15.4006 28.6001 15.4Z" fill="#21AA1B"/>
<path d="M28.6001 6.59998C29.8151 6.59998 30.8 5.615 30.8 4.4C30.8 3.18499 29.8151 2.20002 28.6001 2.20002C27.3851 2.20002 26.4001 3.18499 26.4001 4.4C26.4015 5.61442 27.3856 6.59856 28.6001 6.59998ZM28.6001 3.29998C29.2076 3.29998 29.7001 3.79246 29.7001 4.4C29.7001 5.00753 29.2076 5.50002 28.6001 5.50002C27.9925 5.50002 27.5 5.00753 27.5 4.4C27.5007 3.79272 27.9929 3.30056 28.6001 3.29998Z" fill="#21AA1B"/>
<path d="M16.5 30.8C17.715 30.8 18.7 29.8151 18.7 28.6001C18.7 27.3851 17.715 26.4 16.5 26.4C15.285 26.4 14.3 27.385 14.3 28.6C14.3013 29.8145 15.2855 30.7986 16.5 30.8ZM16.5 27.5C17.1075 27.5 17.6 27.9925 17.6 28.6001C17.6 29.2076 17.1075 29.7 16.5 29.7C15.8924 29.7 15.4 29.2075 15.4 28.6C15.4006 27.9928 15.8927 27.5006 16.5 27.5Z" fill="#21AA1B"/>
</g>
<defs>
<clipPath id="clip0">
<rect x="33" y="33" width="33" height="33" transform="rotate(180 33 33)" fill="white"/>
</clipPath>
</defs>
</svg>
