<svg width="25" height="25" viewBox="0 0 25 25" fill="none" xmlns="http://www.w3.org/2000/svg">
<g clip-path="url(#clip0)">
<path d="M21.9668 5.06169L12.5707 0.0549655C12.4313 -0.0194306 12.2643 -0.0183865 12.1259 0.0575758L2.98984 5.0643C2.84 5.14653 2.74707 5.30367 2.74707 5.47465V12.0147C2.75255 17.3908 5.93775 22.2545 10.8635 24.4083L12.1317 24.9609C12.2502 25.0126 12.3851 25.0129 12.5039 24.9615L13.9328 24.3444C18.95 22.2373 22.214 17.3266 22.2146 11.885V5.47465C22.2146 5.30185 22.1193 5.14287 21.9668 5.06169ZM21.279 11.885C21.278 16.9515 18.2382 21.5231 13.5666 23.4837L13.5635 23.4853L12.3191 24.0225L11.2379 23.5508C6.65273 21.546 3.68759 17.0191 3.68237 12.0147V5.75162L12.3538 0.999143L21.279 5.75501V11.885Z" fill="#21AA1B"/>
<path d="M8.90258 11.7115C8.73473 11.5149 8.4395 11.4917 8.24294 11.6595C8.04637 11.8271 8.02314 12.1226 8.19099 12.3189L10.662 15.2125C10.827 15.4057 11.1159 15.432 11.3128 15.2718L17.0676 10.5898C17.2681 10.4269 17.2984 10.1322 17.1352 9.9317C16.9723 9.73148 16.6776 9.70094 16.4771 9.86409L11.0768 14.2574L8.90258 11.7115Z" fill="#21AA1B"/>
</g>
<defs>
<clipPath id="clip0">
<rect width="25" height="25" fill="white"/>
</clipPath>
</defs>
</svg>
