<svg width="24" height="24" viewBox="0 0 24 24" fill="none" xmlns="http://www.w3.org/2000/svg">
<g clip-path="url(#clip0)">
<path d="M23.3702 18.515L18.5126 15.2755C17.8961 14.8677 17.0698 15.0019 16.614 15.5838L15.199 17.4032C15.0172 17.643 14.6866 17.7125 14.4236 17.5664L14.1544 17.418C13.2621 16.9316 12.1519 16.3261 9.91504 14.0885C7.67816 11.8508 7.07146 10.7398 6.58511 9.84912L6.43752 9.57996C6.28937 9.31694 6.35761 8.98497 6.59748 8.80167L8.41559 7.3871C8.99731 6.93131 9.13168 6.10521 8.72435 5.48857L5.48483 0.630881C5.06738 0.00294343 4.22985 -0.18556 3.58358 0.202929L1.55228 1.42314C0.914028 1.79836 0.44577 2.40606 0.24569 3.11887C-0.485779 5.78407 0.0644979 10.3838 6.8403 17.1604C12.2303 22.55 16.2429 23.9994 19.0009 23.9994C19.6357 24.0021 20.2679 23.9195 20.8807 23.7538C21.5936 23.554 22.2014 23.0857 22.5764 22.4473L23.7978 20.4172C24.1869 19.7708 23.9985 18.9327 23.3702 18.515ZM23.1087 20.0068L21.8901 22.0381C21.6208 22.4989 21.1837 22.8377 20.6702 22.9836C18.2098 23.6591 13.9112 23.0996 7.40619 16.5945C0.90114 10.0895 0.341676 5.79129 1.01718 3.33048C1.16323 2.81643 1.50246 2.37873 1.96383 2.10905L3.99513 0.890437C4.27554 0.721712 4.63905 0.803496 4.8202 1.07599L6.57995 3.71799L8.05695 5.93325C8.23383 6.20073 8.17572 6.55922 7.92338 6.75714L6.10485 8.17171C5.55143 8.59489 5.39339 9.36057 5.73412 9.96826L5.87853 10.2306C6.38967 11.1681 7.02515 12.3343 9.34521 14.654C11.6653 16.9736 12.8311 17.6092 13.7682 18.1203L14.0309 18.265C14.6385 18.6057 15.4043 18.4477 15.8274 17.8943L17.242 16.0758C17.44 15.8236 17.7983 15.7655 18.0659 15.9422L22.9232 19.1817C23.1958 19.3627 23.2776 19.7264 23.1087 20.0068Z" fill="#333333"/>
</g>
<defs>
<clipPath id="clip0">
<rect width="24" height="24" fill="white"/>
</clipPath>
</defs>
</svg>
