<svg width="35" height="35" viewBox="0 0 35 35" fill="none" xmlns="http://www.w3.org/2000/svg">
<path d="M33.6719 27.1698H18.9854L30.2266 15.9293V17.6446C30.2266 17.8077 30.2914 17.9642 30.4068 18.0796C30.5221 18.195 30.6786 18.2598 30.8418 18.2598C31.005 18.2598 31.1615 18.195 31.2768 18.0796C31.3922 17.9642 31.457 17.8077 31.457 17.6446V14.4453C31.4571 14.3645 31.4412 14.2845 31.4103 14.2098C31.3794 14.1352 31.3341 14.0673 31.2769 14.0102C31.2198 13.9531 31.152 13.9077 31.0773 13.8768C31.0026 13.8459 30.9226 13.8301 30.8418 13.8301H27.6426C27.4794 13.8301 27.3229 13.8949 27.2075 14.0103C27.0922 14.1257 27.0273 14.2822 27.0273 14.4453C27.0273 14.6085 27.0922 14.765 27.2075 14.8804C27.3229 14.9958 27.4794 15.0606 27.6426 15.0606H29.3586L17.5 26.9149L4.59379 14.0087C4.4784 13.8933 4.32191 13.8285 4.15873 13.8285C3.99555 13.8285 3.83906 13.8933 3.72367 14.0087C3.60829 14.1241 3.54346 14.2806 3.54346 14.4438C3.54346 14.6069 3.60829 14.7634 3.72367 14.8788L16.0146 27.1698H1.32812C1.16495 27.1698 1.00847 27.2346 0.893089 27.35C0.77771 27.4654 0.712891 27.6219 0.712891 27.785V29.9717C0.712984 30.1349 0.777833 30.2913 0.893191 30.4067C1.00855 30.522 1.16498 30.5869 1.32812 30.587H33.6719C33.835 30.587 33.9915 30.5222 34.1069 30.4068C34.2223 30.2914 34.2871 30.1349 34.2871 29.9717V27.785C34.2872 27.7042 34.2713 27.6242 34.2404 27.5495C34.2095 27.4749 34.1642 27.407 34.107 27.3499C34.0499 27.2928 33.982 27.2474 33.9074 27.2165C33.8327 27.1856 33.7527 27.1697 33.6719 27.1698ZM33.0566 28.4003V29.3562H1.94336V28.4003H33.0566Z" fill="#21AA1B"/>
<path d="M33.6719 33.0854H1.32812C1.16495 33.0854 1.00847 33.1503 0.893089 33.2656C0.77771 33.381 0.712891 33.5375 0.712891 33.7007C0.712891 33.8639 0.77771 34.0203 0.893089 34.1357C1.00847 34.2511 1.16495 34.3159 1.32812 34.3159H33.6719C33.835 34.3159 33.9915 34.2511 34.1069 34.1357C34.2223 34.0203 34.2871 33.8639 34.2871 33.7007C34.2871 33.5375 34.2223 33.381 34.1069 33.2656C33.9915 33.1503 33.835 33.0854 33.6719 33.0854Z" fill="#21AA1B"/>
<path d="M8.49121 10.9521H10.5788C10.7031 12.3662 11.2594 13.7079 12.1721 14.7951L10.6955 16.2716C10.6368 16.3284 10.5899 16.3963 10.5577 16.4714C10.5254 16.5464 10.5085 16.6272 10.5078 16.7089C10.5071 16.7906 10.5227 16.8716 10.5536 16.9472C10.5846 17.0228 10.6303 17.0915 10.6881 17.1492C10.7458 17.207 10.8145 17.2526 10.8902 17.2836C10.9658 17.3145 11.0468 17.33 11.1285 17.3293C11.2102 17.3286 11.2909 17.3116 11.366 17.2793C11.441 17.2471 11.5089 17.2002 11.5656 17.1414L13.0422 15.6648C14.1294 16.5774 15.4708 17.1336 16.8848 17.2581V19.3457C16.8848 19.5089 16.9496 19.6654 17.065 19.7807C17.1803 19.8961 17.3368 19.9609 17.5 19.9609C17.6632 19.9609 17.8197 19.8961 17.935 19.7807C18.0504 19.6654 18.1152 19.5089 18.1152 19.3457V17.2581C19.5293 17.1336 20.8709 16.5774 21.9582 15.6648L23.4347 17.1414C23.4918 17.1985 23.5596 17.2438 23.6343 17.2747C23.7089 17.3056 23.7888 17.3215 23.8696 17.3215C23.9504 17.3215 24.0303 17.3056 24.105 17.2747C24.1796 17.2438 24.2474 17.1985 24.3045 17.1414C24.3616 17.0843 24.4069 17.0165 24.4378 16.9419C24.4687 16.8673 24.4846 16.7873 24.4846 16.7065C24.4846 16.6258 24.4687 16.5458 24.4378 16.4712C24.4069 16.3965 24.3616 16.3288 24.3045 16.2716L22.8279 14.7951C23.7405 13.7078 24.2967 12.3662 24.4212 10.9521H26.5088C26.672 10.9521 26.8284 10.8873 26.9438 10.772C27.0592 10.6566 27.124 10.5001 27.124 10.3369C27.124 10.1737 27.0592 10.0173 26.9438 9.90188C26.8284 9.7865 26.672 9.72168 26.5088 9.72168H24.4212C24.2967 8.30764 23.7405 6.96605 22.8279 5.87875L24.3045 4.40219C24.4198 4.28685 24.4846 4.13042 24.4846 3.9673C24.4846 3.80419 24.4198 3.64776 24.3045 3.53242C24.1892 3.41708 24.0327 3.35229 23.8696 3.35229C23.7065 3.35229 23.5501 3.41708 23.4347 3.53242L21.9582 5.00898C20.8709 4.09641 19.5293 3.54019 18.1152 3.4157V1.32812C18.1152 1.16495 18.0504 1.00847 17.935 0.893089C17.8197 0.77771 17.6632 0.712891 17.5 0.712891C17.3368 0.712891 17.1803 0.77771 17.065 0.893089C16.9496 1.00847 16.8848 1.16495 16.8848 1.32812V3.4157C15.4707 3.54019 14.1291 4.09641 13.0418 5.00898L11.5653 3.53242C11.5085 3.47365 11.4407 3.42677 11.3656 3.39451C11.2905 3.36225 11.2098 3.34526 11.1281 3.34453C11.0464 3.34381 10.9654 3.35936 10.8898 3.39028C10.8142 3.4212 10.7455 3.46687 10.6877 3.52462C10.6299 3.58237 10.5842 3.65106 10.5533 3.72666C10.5223 3.80226 10.5068 3.88327 10.5074 3.96497C10.5081 4.04666 10.5251 4.12739 10.5573 4.20246C10.5896 4.27752 10.6364 4.34542 10.6952 4.40219L12.1717 5.87875C11.259 6.96597 10.7028 8.3076 10.5784 9.72168H8.49121C8.32804 9.72168 8.17155 9.7865 8.05617 9.90188C7.9408 10.0173 7.87598 10.1737 7.87598 10.3369C7.87598 10.5001 7.9408 10.6566 8.05617 10.772C8.17155 10.8873 8.32804 10.9521 8.49121 10.9521ZM17.5 4.61523C18.6316 4.6153 19.7378 4.95093 20.6787 5.57968C21.6196 6.20843 22.3529 7.10206 22.7859 8.14756C23.2189 9.19307 23.3322 10.3435 23.1113 11.4534C22.8905 12.5632 22.3456 13.5827 21.5454 14.3829C20.7452 15.183 19.7257 15.7279 18.6158 15.9487C17.5059 16.1694 16.3555 16.0561 15.31 15.623C14.2645 15.19 13.3709 14.4566 12.7422 13.5157C12.1135 12.5748 11.778 11.4685 11.778 10.3369C11.7796 8.81985 12.3829 7.36539 13.4557 6.2927C14.5284 5.22001 15.9829 4.61672 17.5 4.61523Z" fill="#21AA1B"/>
<path d="M14.467 10.3369C14.4682 9.53294 14.7881 8.76222 15.3566 8.19379C15.9252 7.62536 16.696 7.30562 17.5 7.30469C17.6631 7.30469 17.8196 7.23987 17.935 7.12449C18.0504 7.00911 18.1152 6.85262 18.1152 6.68945C18.1152 6.52628 18.0504 6.3698 17.935 6.25442C17.8196 6.13904 17.6631 6.07422 17.5 6.07422C16.3698 6.07552 15.2862 6.52502 14.487 7.32413C13.6877 8.12324 13.2381 9.20671 13.2366 10.3369C13.2366 10.5001 13.3014 10.6566 13.4168 10.772C13.5321 10.8873 13.6886 10.9521 13.8518 10.9521C14.015 10.9521 14.1715 10.8873 14.2868 10.772C14.4022 10.6566 14.467 10.5001 14.467 10.3369Z" fill="#21AA1B"/>
</svg>
