<svg width="66" height="66" viewBox="0 0 66 66" fill="none" xmlns="http://www.w3.org/2000/svg">
<path d="M62.9062 5.15625H56L54.8151 4.36528C51.5419 2.18419 47.7335 1.03125 43.8003 1.03125H36.0938C34.9563 1.03125 34.0312 1.95628 34.0312 3.09375C34.0312 3.84862 34.2499 4.54781 34.6046 5.15728L28.875 5.15625C27.1693 5.15625 25.7812 6.54431 25.7812 8.25C25.7812 8.65734 25.8648 9.04406 26.0081 9.40088C25.4327 9.55659 24.9253 9.87009 24.5345 10.2991L23.4919 9.2565L21.9893 10.758C21.4211 11.3273 20.5703 11.4923 19.7814 11.1623C19.041 10.856 18.5625 10.1403 18.5625 9.33797V7.21875H12.375V9.33797C12.375 10.1403 11.8965 10.857 11.1138 11.1788C10.3661 11.4943 9.51534 11.3273 8.94609 10.758L7.44562 9.2565L3.069 13.6331L4.56947 15.1346C5.13769 15.7039 5.30372 16.5547 4.97475 17.3425C4.66847 18.083 3.95278 18.5625 3.15047 18.5625H1.03125V24.75H3.15047C3.95278 24.75 4.6695 25.2295 4.99228 26.0102C5.30475 26.7589 5.13872 27.6097 4.5705 28.1789L3.069 29.6794L7.44562 34.056L8.94816 32.5545C9.51637 31.9853 10.3661 31.8202 11.155 32.1482C11.8955 32.4565 12.375 33.1722 12.375 33.9745V36.0938H13.4062V38.1831C13.4062 40.1569 13.6259 42.1235 14.0343 44.0457C13.0505 44.4902 12.0955 45.0089 11.186 45.6153L10 46.4062H3.09375C1.95628 46.4062 1.03125 47.3313 1.03125 48.4688V60.8438C1.03125 61.9812 1.95628 62.9062 3.09375 62.9062H9.28125C10.1155 62.9062 10.8323 62.4061 11.1571 61.6914C14.3839 63.8117 18.1943 64.9688 22.0718 64.9688H30.9375C31.3624 64.9688 31.7677 64.8821 32.1368 64.7264C32.3153 64.7893 32.4926 64.8553 32.6731 64.9151L33 65.0244L33.3269 64.9162C38.1985 63.293 42.3823 60.4261 45.6029 56.7518C45.804 56.7724 46.0082 56.8136 46.2175 56.9002C46.958 57.2065 47.4375 57.9222 47.4375 58.7245V60.8438H53.625V58.7245C53.625 57.9222 54.1045 57.2055 54.8852 56.8827C55.6339 56.5713 56.4836 56.7353 57.0529 57.3045L58.5544 58.806L62.931 54.4294L61.4305 52.9279C60.8623 52.3586 60.6963 51.5078 61.0252 50.72C61.3315 49.9795 62.0472 49.5 62.8495 49.5H64.9688V43.3125H62.8495C62.0472 43.3125 61.3305 42.833 61.0077 42.0523C60.6953 41.3036 60.8613 40.4528 61.4295 39.8836L62.93 38.3821L58.5533 34.0055L57.0508 35.507C56.4826 36.0762 55.6328 36.2412 54.8429 35.9112C54.1035 35.606 53.625 34.8903 53.625 34.088V31.9688H52.5938V21.7171C53.3703 21.3397 54.121 20.9127 54.8419 20.4383C55.1657 21.154 55.8834 21.6562 56.7188 21.6562H62.9062C64.0437 21.6562 64.9688 20.7312 64.9688 19.5938V7.21875C64.9688 6.08128 64.0437 5.15625 62.9062 5.15625ZM28.875 7.21875L38.1562 7.21978V7.21875H41.4253C42.0472 7.21875 42.6092 7.50647 42.9938 7.98497C42.5442 8.37272 42.1503 8.811 41.8017 9.28125H28.875C28.3068 9.28125 27.8438 8.81925 27.8438 8.25C27.8438 7.68075 28.3068 7.21875 28.875 7.21875ZM35.2337 16.7496L33.3125 15.4688H40.2188V17.5312H36.5434C36.0968 17.2899 35.6575 17.0332 35.2337 16.7496ZM29.4566 17.5312H28.875C28.3068 17.5312 27.8438 17.0693 27.8438 16.5C27.8438 15.9307 28.3068 15.4688 28.875 15.4688H32.6875L30.7673 16.7496C30.3425 17.0332 29.9032 17.2899 29.4566 17.5312ZM26.8125 11.3438H40.6983C40.4621 12.0027 40.3157 12.6947 40.259 13.4062H26.8125C26.2443 13.4062 25.7812 12.9443 25.7812 12.375C25.7812 11.8057 26.2443 11.3438 26.8125 11.3438ZM11.9089 30.229C10.3847 29.5938 8.64909 29.9341 7.48791 31.0963L7.44562 31.1396L5.98537 29.6794L6.02869 29.6361C7.18988 28.4738 7.53019 26.7383 6.88153 25.1831C6.25556 23.6672 4.79119 22.6875 3.15047 22.6875H3.09375V20.625H3.15047C4.79119 20.625 6.25556 19.6453 6.89494 18.0964C7.53019 16.5732 7.18988 14.8387 6.02869 13.6764L5.98537 13.6331L7.44562 12.1729L7.48894 12.2162C8.65219 13.3805 10.3878 13.7187 11.9419 13.069C13.4578 12.4431 14.4375 10.9787 14.4375 9.33797V9.28125H16.5V9.33797C16.5 10.9787 17.4797 12.4441 19.0276 13.0824C20.5497 13.7197 22.2863 13.3794 23.4486 12.2162L23.4919 12.1729L23.7208 12.4028C23.7332 13.8167 24.7015 14.9954 26.0081 15.3502C25.8648 15.7059 25.7812 16.0927 25.7812 16.5C25.7812 17.3642 26.1391 18.1448 26.7125 18.7069C25.3058 19.173 23.8446 19.4514 22.3657 19.5401C21.451 16.5361 18.6883 14.4375 15.4688 14.4375C11.4881 14.4375 8.25 17.6767 8.25 21.6562C8.25 24.8954 10.3733 27.6715 13.4062 28.5697V31.284C13.0041 30.8375 12.4988 30.4734 11.9089 30.229ZM13.4062 18.3356V26.3649C11.5634 25.5616 10.3125 23.7497 10.3125 21.6552C10.3125 18.8121 12.6256 16.499 15.4688 16.499C17.5395 16.499 19.3328 17.7231 20.1486 19.5308C19.4463 19.4813 18.7461 19.403 18.051 19.2648L13.4062 18.3356ZM9.28125 60.8438H3.09375V48.4688H9.28125V60.8438ZM30.9375 62.9062H22.0718C18.2078 62.9062 14.422 61.6182 11.3438 59.2907V47.9892L12.3296 47.3313C15.2615 45.3771 18.6749 44.3438 22.1997 44.3438H27.8438C27.8438 45.4812 26.9198 46.4062 25.7854 46.4062H25.7812H22.6813V48.4688H25.7812H25.7854H35.0625C35.6307 48.4688 36.0938 48.9308 36.0938 49.5C36.0938 50.0692 35.6307 50.5312 35.0625 50.5312H22.6875V52.5938H37.125C37.6932 52.5938 38.1562 53.0558 38.1562 53.625C38.1562 54.1942 37.6932 54.6562 37.125 54.6562H22.6875V56.7188H35.0625C35.6307 56.7188 36.0938 57.1808 36.0938 57.75C36.0938 58.3192 35.6307 58.7812 35.0625 58.7812H22.6875V60.8438H30.9375C31.5057 60.8438 31.9688 61.3058 31.9688 61.875C31.9688 62.4442 31.5057 62.9062 30.9375 62.9062ZM19.5938 38.1831V25.7132C20.1877 25.7586 20.7828 25.7812 21.3727 25.7812C25.2945 25.7812 28.8472 24.9779 31.9688 23.4052V46.4062H29.3329C29.6876 45.7968 29.9062 45.0986 29.9062 44.3438C29.9062 43.2063 28.9812 42.2812 27.8438 42.2812H22.1997C21.4634 42.2812 20.7343 42.3349 20.0093 42.4153C19.7381 41.0252 19.5938 39.6062 19.5938 38.1831ZM40.2053 53.4899C40.1445 52.1245 39.2009 50.9963 37.9294 50.6509C38.0727 50.2941 38.1562 49.9073 38.1562 49.5C38.1562 47.7943 36.7682 46.4062 35.0625 46.4062H34.0312V23.4052C37.1528 24.9789 40.7055 25.7812 44.6273 25.7812C45.2172 25.7812 45.8122 25.7586 46.4062 25.7132V38.1841C46.4062 43.9838 44.1427 49.4361 40.2053 53.4899ZM33.9714 62.4669C34.0086 62.2751 34.0312 62.0771 34.0312 61.875C34.0312 61.512 33.957 61.1676 33.8415 60.8438H35.0625C36.7063 60.8438 38.0428 59.5506 38.1377 57.9305C44.6129 53.4394 48.4688 46.1072 48.4688 38.1831V23.3991L47.3076 23.5476C46.4176 23.661 45.5153 23.7188 44.6273 23.7188C40.4209 23.7188 36.6919 22.7298 33.5424 20.7787L33 20.4425L32.4576 20.7787C29.3081 22.7298 25.5791 23.7188 21.3727 23.7188C20.4848 23.7188 19.5834 23.661 18.6924 23.5476L17.5312 23.3991V38.1831C17.5312 39.7145 17.6839 41.2407 17.9706 42.7381C17.2972 42.8845 16.6351 43.0732 15.9803 43.2898C15.6472 41.612 15.4688 39.9011 15.4688 38.1831V20.8519L17.6478 21.2881C18.8719 21.5325 20.1259 21.6562 21.3727 21.6562C25.1347 21.6562 28.7791 20.5538 31.911 18.4656L33 17.7396L34.089 18.4656C37.2209 20.5538 40.8643 21.6562 44.6273 21.6562C45.8741 21.6562 47.1281 21.5325 48.3532 21.2881L50.5312 20.8519V38.1841C50.5312 48.9772 43.9271 58.5544 33.9714 62.4669ZM52.3658 41.6006C54.3139 42.3524 55.6875 44.254 55.6875 46.4062C55.6875 49.2494 53.3744 51.5625 50.5312 51.5625C50.1064 51.5625 49.6928 51.5089 49.2896 51.4088C50.8891 48.3986 51.942 45.0842 52.3658 41.6006ZM54.0901 37.8324C55.6122 38.4697 57.3488 38.1294 58.5111 36.9662L58.5544 36.9229L60.0146 38.3831L59.9713 38.4264C58.8101 39.5887 58.4698 41.3243 59.1185 42.8794C59.7444 44.3953 61.2088 45.375 62.8495 45.375H62.9062V47.4375H62.8495C61.2088 47.4375 59.7444 48.4172 59.1051 49.9661C58.4698 51.4893 58.8101 53.2238 59.9713 54.3861L60.0146 54.4294L58.5544 55.8896L58.5111 55.8463C57.3478 54.6831 55.6122 54.3417 54.0571 54.9935C52.5422 55.6205 51.5625 57.0838 51.5625 58.7245V58.7812H49.5V58.7245C49.5 57.1013 48.5399 55.6545 47.0178 55.0027C47.4427 54.4314 47.8448 53.8447 48.2264 53.2424C48.9648 53.493 49.7362 53.625 50.5312 53.625C54.5119 53.625 57.75 50.3858 57.75 46.4062C57.75 43.1908 55.5658 40.3662 52.5422 39.4804C52.5618 39.0483 52.5938 38.6193 52.5938 38.1831V36.7775C52.9959 37.225 53.5013 37.5891 54.0901 37.8324ZM47.949 19.2658C46.0721 19.6402 44.155 19.668 42.2812 19.404V14.0508C42.2812 12.376 42.9866 10.8075 44.1932 9.69066C45.1904 10.7312 46.5723 11.3438 48.0697 11.3438H48.4688V9.28125H48.0697C46.8012 9.28125 45.6627 8.57587 45.0873 7.42294C44.3902 6.02559 42.9877 5.15625 41.4253 5.15625H38.1521C37.0177 5.15625 36.0938 4.23122 36.0938 3.09375H43.8003C47.3251 3.09375 50.7385 4.12706 53.6704 6.08128L54.6562 6.73922V18.0469C54.0004 18.5429 53.3115 18.9925 52.5938 19.3937V18.3356L47.949 19.2658ZM62.9062 19.5938H56.7188V7.21875H62.9062V19.5938Z" fill="#21AA1B"/>
<path d="M49.3194 13.6785C46.995 14.2591 45.1542 15.9638 44.3962 18.2366L46.3525 18.8894C46.8867 17.2879 48.182 16.0886 49.8196 15.6791L50.7807 15.4389L50.2806 13.4393L49.3194 13.6785Z" fill="#21AA1B"/>
<path d="M1.03125 40.2188H3.09375V42.2812H1.03125V40.2188Z" fill="#21AA1B"/>
<path d="M5.15625 40.2188H7.21875V42.2812H5.15625V40.2188Z" fill="#21AA1B"/>
<path d="M9.28125 40.2188H11.3438V42.2812H9.28125V40.2188Z" fill="#21AA1B"/>
<path d="M54.6562 25.7812H56.7188V27.8438H54.6562V25.7812Z" fill="#21AA1B"/>
<path d="M58.7812 25.7812H60.8438V27.8438H58.7812V25.7812Z" fill="#21AA1B"/>
<path d="M62.9062 25.7812H64.9688V27.8438H62.9062V25.7812Z" fill="#21AA1B"/>
</svg>
