<svg width="35" height="38" viewBox="0 0 35 38" fill="none" xmlns="http://www.w3.org/2000/svg">
<path d="M18.6621 11.5781C18.6621 11.1682 18.3561 10.8359 17.9785 10.8359C17.601 10.8359 17.2949 11.1682 17.2949 11.5781C17.2949 11.988 17.601 12.3203 17.9785 12.3203C18.3561 12.3203 18.6621 11.988 18.6621 11.5781Z" fill="#21AA1B"/>
<path d="M7.68093 10.8359L5.09086 9.42994C4.99666 9.3788 4.89057 9.35156 4.78516 9.35156H0.683594C0.306045 9.35156 0 9.68384 0 10.0938L0 27.9062C0 28.3162 0.306045 28.6484 0.683594 28.6484H4.78516C4.88756 28.6484 4.98777 28.6225 5.08013 28.575C5.08368 28.5731 5.08737 28.5719 5.09086 28.5701L7.68093 27.1641H27.3191C27.3191 27.1641 29.9086 28.5698 29.9091 28.5701C30.0034 28.6212 30.1094 28.6484 30.2148 28.6484H34.3164C34.694 28.6484 35 28.3162 35 27.9063V10.0938C35 9.68384 34.694 9.35156 34.3164 9.35156C34.3164 9.35156 30.215 9.35156 30.2148 9.35156C30.1113 9.35156 30.0016 9.37969 29.9091 9.42994L27.3191 10.8359H21.0547C20.678 10.8359 20.3711 11.1692 20.3711 11.5781C20.3711 11.9871 20.678 12.3203 21.0547 12.3203H26.7969V25.6797H8.20312L8.20313 12.3203H14.9023C15.279 12.3203 15.5859 11.9871 15.5859 11.5781C15.5859 11.1692 15.279 10.8359 14.9023 10.8359H7.68093ZM1.36719 27.1641L1.36719 10.8359H4.10156L4.10156 27.1641H1.36719ZM33.6328 10.8359V27.1641H30.8984V10.8359H33.6328ZM28.1641 12.0368L29.5312 11.2946V26.7054L28.1641 25.9632V12.0368ZM6.83594 25.9632L5.46875 26.7054L5.46875 11.2946L6.83594 12.0368L6.83594 25.9632Z" fill="#21AA1B"/>
</svg>
