<svg width="66" height="66" viewBox="0 0 66 66" fill="none" xmlns="http://www.w3.org/2000/svg">
<path d="M7.21875 54.6593H58.7812C62.7608 54.6593 66 51.4202 66 47.4406V43.3115V22.6885V18.5594C66 14.5798 62.7608 11.3406 58.7812 11.3406H7.21875H7.21772C3.23916 11.3417 0.00103125 14.5798 0 18.5584V18.5594V22.6885V43.3115V47.4406C0 51.4202 3.23916 54.6593 7.21875 54.6593ZM58.7812 52.5968H7.21875C4.72416 52.5968 2.63897 50.8148 2.16562 48.4574C3.46913 49.7372 5.25216 50.5302 7.21875 50.5302H58.7812C60.7478 50.5302 62.5319 49.7372 63.8344 48.4574C63.361 50.8148 61.2758 52.5968 58.7812 52.5968ZM4.12913 19.5937V42.2761H2.0625V22.6885V19.5917L4.12913 19.5937ZM63.9375 19.5948V22.6885V42.2761H61.8709V19.5948H63.9375ZM8.25412 48.4677V46.4011H57.7459V48.4677H8.25412ZM4.31888 44.3386C4.63031 45.212 5.31712 45.8999 6.19059 46.2103V48.3635C4.17037 47.9531 2.57503 46.3588 2.16562 44.3386H4.31888ZM59.8084 46.2113C60.6829 45.8999 61.3697 45.212 61.6801 44.3396H63.8333C63.4239 46.3598 61.8286 47.9541 59.8084 48.3646V46.2113ZM57.7459 15.4698H8.25309L8.25103 13.4031H57.7459V15.4698ZM6.19163 18.5635C6.19163 17.9943 6.65363 17.5323 7.22288 17.5323H7.22391H58.7771C59.3464 17.5323 59.8084 17.9943 59.8084 18.5635V43.3073C59.8084 43.8766 59.3464 44.3386 58.7771 44.3386H7.22288C6.65363 44.3386 6.19163 43.8766 6.19163 43.3073V18.5635ZM63.8333 17.5323H61.6801C61.3687 16.6588 60.6818 15.971 59.8084 15.6605V13.5073C61.8286 13.9177 63.4239 15.512 63.8333 17.5323ZM6.18853 13.5073L6.19059 15.6605C5.31712 15.971 4.63031 16.6578 4.31888 17.5312L2.16562 17.5292C2.57812 15.511 4.17037 13.9188 6.18853 13.5073Z" fill="#21AA1B"/>
</svg>
