<svg width="32" height="31" viewBox="0 0 32 31" fill="none" xmlns="http://www.w3.org/2000/svg">
<g>
<g clip-path="url(#clip0)">
<path d="M31.9287 13.4831L26.4994 5.0674C26.4416 4.97785 26.3535 4.91065 26.2501 4.87722L16.1483 1.61509C16.0521 1.58403 15.948 1.58403 15.8518 1.61509L5.74992 4.87728C5.64654 4.91071 5.55842 4.97791 5.50067 5.06746L0.071314 13.4831C-0.065873 13.6957 0.000814256 13.9759 0.220313 14.1088L1.93299 15.1459V28.5H1.35575C1.09687 28.5 0.886998 28.7034 0.886998 28.9541C0.886998 29.2049 1.09687 29.4082 1.35575 29.4082H30.6443C30.9031 29.4082 31.113 29.2049 31.113 28.9541C31.113 28.7034 30.9031 28.5 30.6443 28.5H30.067V15.1459L31.7797 14.1088C31.9992 13.9759 32.0659 13.6957 31.9287 13.4831ZM11.0186 28.5L16 24.4786L20.9814 28.5H11.0186ZM10.1926 27.9845V19.7903L15.2678 23.8874L10.1926 27.9845ZM21.8073 27.9846L16.7322 23.8874L18.8107 22.2095C19.0096 22.0489 19.0364 21.7626 18.8707 21.5699C18.7049 21.3772 18.4093 21.3512 18.2105 21.5118L15.9999 23.2964L11.0185 19.2749H20.9814L19.8838 20.1609C19.6849 20.3215 19.6581 20.6078 19.8238 20.8005C19.9165 20.9083 20.0499 20.9639 20.1842 20.9639C20.29 20.9639 20.3964 20.9294 20.484 20.8587L21.8073 19.7904V27.9846ZM22.2734 18.3667H9.14659V17.2482H22.8534V18.3667H22.274C22.2738 18.3667 22.2735 18.3667 22.2734 18.3667ZM29.9064 14.1721L25.1239 6.75956C25.0662 6.67001 24.978 6.6028 24.8747 6.56944L16.1482 3.7516C16.052 3.72054 15.9479 3.72054 15.8518 3.7516L10.0987 5.60935C9.85309 5.68867 9.7204 5.94587 9.80221 6.18376C9.88409 6.42171 10.1495 6.55031 10.3951 6.47099L16 4.66113L24.4183 7.37943L29.1295 14.6815V28.5H22.7449V19.2749H23.3222C23.581 19.2749 23.7909 19.0716 23.7909 18.8208V16.7941C23.7909 16.5433 23.581 16.34 23.3222 16.34H8.67784C8.41897 16.34 8.20909 16.5433 8.20909 16.7941V18.8208C8.20909 19.0716 8.41897 19.2749 8.67784 19.2749H9.25509V28.5H2.87049V14.6815L7.58172 7.37943L8.47328 7.09154C8.71891 7.01222 8.85159 6.75508 8.76978 6.51713C8.68791 6.27918 8.42241 6.15064 8.17684 6.2299L7.12535 6.56944C7.02197 6.6028 6.93385 6.67007 6.8761 6.75956L2.09362 14.1721L1.11475 13.5793L6.20629 5.68722L16 2.52456L25.7937 5.68722L30.8853 13.5793L29.9064 14.1721Z" fill="#333333"/>
<path d="M19.661 7.72681H12.3389C12.0801 7.72681 11.8702 7.93012 11.8702 8.18091V14.2609C11.8702 14.5117 12.0801 14.715 12.3389 14.715H19.661C19.9199 14.715 20.1298 14.5117 20.1298 14.2609V8.18091C20.1298 7.93012 19.9199 7.72681 19.661 7.72681ZM19.1923 13.8068H16.4687V10.2076C16.4687 9.95674 16.2588 9.75348 16 9.75348C15.7411 9.75348 15.5312 9.95674 15.5312 10.2076V13.8068H12.8077V8.63501H19.1923V13.8068Z" fill="#333333"/>
</g>
</g>
<defs>
<clipPath id="clip0">
<rect width="32" height="31" fill="white"/>
</clipPath>
</defs>
</svg>
