<svg width="32" height="31" viewBox="0 0 32 31" fill="none" xmlns="http://www.w3.org/2000/svg">
<g>
<path d="M5.99988 9.84204C5.65563 9.84204 5.37488 10.114 5.37488 10.4476C5.37488 10.7811 5.65563 11.0531 5.99988 11.0531C6.34413 11.0531 6.62488 10.7811 6.62488 10.4476C6.62488 10.114 6.34413 9.84204 5.99988 9.84204Z" fill="#333333"/>
<path d="M5.99988 21.2832C5.65563 21.2832 5.37488 21.5552 5.37488 21.8887C5.37488 22.2222 5.65563 22.4941 5.99988 22.4941C6.34413 22.4941 6.62488 22.2222 6.62488 21.8887C6.62488 21.5552 6.34413 21.2832 5.99988 21.2832Z" fill="#333333"/>
<path d="M16.0001 9.84204C15.6557 9.84204 15.375 10.114 15.375 10.4476C15.375 10.7811 15.6557 11.0531 16.0001 11.0531C16.3443 11.0531 16.6251 10.7811 16.6251 10.4476C16.6251 10.114 16.3443 9.84204 16.0001 9.84204Z" fill="#333333"/>
<path d="M16.0001 21.2832C15.6557 21.2832 15.375 21.5552 15.375 21.8887C15.375 22.2222 15.6557 22.4941 16.0001 22.4941C16.3443 22.4941 16.6251 22.2222 16.6251 21.8887C16.6251 21.5552 16.3443 21.2832 16.0001 21.2832Z" fill="#333333"/>
<path d="M26.0001 9.84204C25.6558 9.84204 25.3751 10.114 25.3751 10.4476C25.3751 10.7811 25.6558 11.0531 26.0001 11.0531C26.3443 11.0531 26.6251 10.7811 26.6251 10.4476C26.6251 10.114 26.3443 9.84204 26.0001 9.84204Z" fill="#333333"/>
<path d="M26.0001 21.2832C25.6558 21.2832 25.3751 21.5552 25.3751 21.8887C25.3751 22.2222 25.6558 22.4941 26.0001 22.4941C26.3443 22.4941 26.6251 22.2222 26.6251 21.8887C26.6251 21.5552 26.3443 21.2832 26.0001 21.2832Z" fill="#333333"/>
<path d="M0.639749 27.0039H0.624999C0.279874 27.0039 0 27.2751 0 27.6094C0 27.9438 0.279874 28.2148 0.624999 28.2148H0.639749C0.984873 28.2148 1.26475 27.9438 1.26475 27.6094C1.26475 27.2751 0.984936 27.0039 0.639749 27.0039Z" fill="#333333"/>
<path d="M31.375 27.0039H31.3602C31.015 27.0039 30.7352 27.2751 30.7352 27.6094C30.7352 27.9438 31.015 28.2148 31.3602 28.2148H31.375C31.7201 28.2148 32 27.9438 32 27.6094C32 27.2751 31.7201 27.0039 31.375 27.0039Z" fill="#333333"/>
<path d="M31.3749 12.96C31.7201 12.96 31.9999 12.689 31.9999 12.3546V8.54079C31.9999 8.20651 31.7201 7.93532 31.3749 7.93532H29.7098L29.7499 6.58628C29.7546 6.42474 29.6927 6.26817 29.5776 6.15119L26.4526 2.97309C26.3347 2.85309 26.1711 2.78516 26.0001 2.78516C25.8291 2.78516 25.6655 2.85303 25.5476 2.97309L22.4226 6.15119C22.3076 6.26817 22.2456 6.42474 22.2504 6.58628L22.2905 7.93532H19.7097L19.7498 6.58628C19.7546 6.42474 19.6926 6.26817 19.5776 6.15119L16.4526 2.97309C16.3345 2.85309 16.171 2.78522 16 2.78522C15.829 2.78522 15.6653 2.85309 15.5475 2.97315L12.4225 6.15125C12.3074 6.26823 12.2455 6.4248 12.2502 6.58634L12.2904 7.93539H9.70967L9.74973 6.58634C9.75448 6.4248 9.69254 6.26823 9.57748 6.15125L6.45249 2.97315C6.33455 2.85309 6.17093 2.78522 5.99993 2.78522C5.82893 2.78522 5.6653 2.85309 5.54743 2.97315L2.42243 6.15125C2.30737 6.26823 2.24543 6.4248 2.25018 6.58634L2.29025 7.93539H0.624999C0.279874 7.93539 0 8.20657 0 8.54085V12.3546C0 12.689 0.279874 12.96 0.624999 12.96H2.4395L2.63012 19.3765H0.624999C0.279874 19.3765 0 19.6476 0 19.982V23.7957C0 24.1301 0.279874 24.4011 0.624999 24.4011H2.77937L2.85668 27.0039H2.43543C2.09031 27.0039 1.81043 27.2751 1.81043 27.6094C1.81043 27.9438 2.09031 28.2149 2.43543 28.2149H29.5646C29.9097 28.2149 30.1896 27.9438 30.1896 27.6094C30.1896 27.2751 29.9098 27.0039 29.5646 27.0039H29.1433L29.2206 24.4011H31.3749C31.7201 24.4011 31.9999 24.1301 31.9999 23.7957V19.982C31.9999 19.6476 31.7201 19.3765 31.3749 19.3765H29.3699L29.5605 12.96H31.3749ZM29.6738 9.14632H30.7499V11.7491H29.5964L29.6738 9.14632ZM1.25 11.749V9.14626H2.32625L2.40356 11.749H1.25ZM1.25 23.1902V20.5874H2.66606L2.74337 23.1902H1.25ZM19.6736 9.14632H22.3264L22.4037 11.7491H19.5963L19.6736 9.14632ZM19.5604 12.96H22.4396L22.6303 19.3764H19.3698L19.5604 12.96ZM19.3338 20.5874H22.6662L22.7435 23.1902H19.2565L19.3338 20.5874ZM9.67361 9.14632H12.3263L12.4036 11.7491H9.59629L9.67361 9.14632ZM9.56036 12.96H12.4395L12.6302 19.3764H9.36973L9.56036 12.96ZM9.33379 20.5874H12.6662L12.7434 23.1902H9.25642L9.33379 20.5874ZM7.89267 27.004H4.10718L3.50712 6.80371L5.99993 4.26855L8.49273 6.80371L7.89267 27.004ZM9.14317 27.004L9.22048 24.4011H12.7794L12.8568 27.004H9.14317ZM17.8927 27.004H14.1073L13.5072 6.80371L16 4.26849L18.4928 6.80365L17.8927 27.004ZM19.1432 27.004L19.2205 24.4011H22.7795L22.8568 27.004H19.1432ZM27.8928 27.004H24.1073L23.5073 6.80371L26.0001 4.26855L28.4929 6.80371L27.8928 27.004ZM30.7499 20.5874V23.1902H29.2566L29.3339 20.5874H30.7499Z" fill="#333333"/>
</g>
</svg>
