<svg width="32" height="31" viewBox="0 0 32 31" fill="none" xmlns="http://www.w3.org/2000/svg">
<g>
<g clip-path="url(#clip0)">
<path d="M31.375 10.7773C31.7202 10.7773 32 10.5063 32 10.1719V7.75C32 7.41557 31.7202 7.14453 31.375 7.14453H30.7166C31.0908 6.65259 31.3125 6.04523 31.3125 5.38867C31.3125 3.75272 29.9387 2.42188 28.25 2.42188C26.5613 2.42188 25.1875 3.75272 25.1875 5.38867C25.1875 6.04523 25.4092 6.65259 25.7834 7.14453H25.125C24.7798 7.14453 24.5 7.41557 24.5 7.75V10.1719C24.5 10.5063 24.7798 10.7773 25.125 10.7773H25.375V11.9483L24.3523 11.6404C23.2764 11.3161 22.3235 10.6482 21.6692 9.75964C20.4639 8.12203 18.5046 7.14453 16.4285 7.14453H15.5874C13.5112 7.14453 11.552 8.12203 10.3467 9.75964C9.69238 10.6482 8.7395 11.3161 7.66357 11.6404L6.625 11.953V10.7773H6.875C7.22021 10.7773 7.5 10.5063 7.5 10.1719V7.75C7.5 7.41557 7.22021 7.14453 6.875 7.14453H6.21655C6.59082 6.65259 6.8125 6.04523 6.8125 5.38867C6.8125 3.75272 5.43872 2.42188 3.75 2.42188C2.06128 2.42188 0.6875 3.75272 0.6875 5.38867C0.6875 6.04523 0.90918 6.65259 1.28345 7.14453H0.625C0.279785 7.14453 0 7.41557 0 7.75V10.1719C0 10.5063 0.279785 10.7773 0.625 10.7773H0.875V24.9453H0.625C0.279785 24.9453 0 25.2164 0 25.5508V27.9727C0 28.3071 0.279785 28.5781 0.625 28.5781H6.875C7.22021 28.5781 7.5 28.3071 7.5 27.9727V26.1562H24.5V27.9727C24.5 28.3071 24.7798 28.5781 25.125 28.5781H31.375C31.7202 28.5781 32 28.3071 32 27.9727V25.5508C32 25.2164 31.7202 24.9453 31.375 24.9453H31.125V10.7773H31.375ZM26.4375 5.38867C26.4375 4.42063 27.2507 3.63281 28.25 3.63281C29.2493 3.63281 30.0625 4.42063 30.0625 5.38867C30.0625 6.35671 29.2493 7.14453 28.25 7.14453C27.2507 7.14453 26.4375 6.35671 26.4375 5.38867ZM25.75 8.35547H30.75V9.56641H25.75V8.35547ZM8.03491 12.7967C9.37012 12.3944 10.5525 11.5656 11.3643 10.4628C12.2961 9.19721 13.7866 8.42075 15.3831 8.35949V13.9258C15.3831 14.2602 15.6628 14.5312 16.0081 14.5312C16.353 14.5312 16.6331 14.2602 16.6331 13.9258V8.35996C18.2292 8.42122 19.72 9.19721 20.6516 10.4628C21.4634 11.5656 22.6458 12.3944 23.981 12.7967L25.375 13.2165V24.9453H16.6331V19.375C16.6331 19.0406 16.353 18.7695 16.0081 18.7695C15.6628 18.7695 15.3831 19.0406 15.3831 19.375V24.9453H6.625V13.2212L8.03491 12.7967ZM1.9375 5.38867C1.9375 4.42063 2.75073 3.63281 3.75 3.63281C4.74927 3.63281 5.5625 4.42063 5.5625 5.38867C5.5625 6.35671 4.74927 7.14453 3.75 7.14453C2.75073 7.14453 1.9375 6.35671 1.9375 5.38867ZM1.25 8.35547H6.25V9.56641H1.25V8.35547ZM2.125 10.7773H5.375V12.7721V12.7782V24.9453H2.125V10.7773ZM6.25 27.3672H1.25V26.1562H6.25V27.3672ZM30.75 27.3672H25.75V26.1562H30.75V27.3672ZM29.875 24.9453H26.625V10.7773H29.875V24.9453Z" fill="#333333"/>
<path d="M16.0081 17.2559C16.1726 17.2559 16.3337 17.1911 16.45 17.0785C16.5662 16.9659 16.6331 16.8096 16.6331 16.6504C16.6331 16.4912 16.5662 16.3349 16.45 16.2223C16.3337 16.1097 16.1726 16.0449 16.0081 16.0449C15.8437 16.0449 15.6826 16.1097 15.5662 16.2223C15.4495 16.3349 15.3831 16.4912 15.3831 16.6504C15.3831 16.8096 15.4495 16.9659 15.5662 17.0785C15.6826 17.1911 15.843 17.2559 16.0081 17.2559Z" fill="#333333"/>
</g>
</g>
<defs>
<clipPath id="clip0">
<rect width="32" height="31" fill="white"/>
</clipPath>
</defs>
</svg>
