<svg width="32" height="31" viewBox="0 0 32 31" fill="none" xmlns="http://www.w3.org/2000/svg">
<g>
<path d="M16.4921 19.6052H15.5084V27.8152H16.4921V19.6052Z" fill="#333333"/>
<path d="M14.4993 23.2627H12.9985V24.1596H14.4993V23.2627Z" fill="#333333"/>
<path d="M19.0016 23.2627H17.5008V24.1596H19.0016V23.2627Z" fill="#333333"/>
<path d="M27.3137 4.27281C24.2917 1.51746 20.2738 0 16.0001 0C11.7263 0 7.70831 1.51746 4.68631 4.27281C1.66431 7.02817 0 10.6916 0 14.5883V29.1765H32V14.5883C32 10.6916 30.3357 7.02811 27.3137 4.27281ZM5.38194 4.90706C8.21813 2.32112 11.9891 0.896949 16.0001 0.896949C20.0111 0.896949 23.782 2.32112 26.6182 4.90706C29.3381 7.387 30.8851 10.6509 31.0075 14.1398H29.9905C29.7308 7.30842 23.5547 1.8245 16.0001 1.8245C8.44544 1.8245 2.26931 7.30842 2.00956 14.1398H0.992625C1.11494 10.6509 2.662 7.38695 5.38194 4.90706ZM25.5134 28.2795H6.48669V19.1418H25.5134L25.5134 28.2795ZM6.48669 18.2449V15.9489H7.504V18.2449H6.48669ZM8.48763 18.2449V15.9489H9.50494V18.2449H8.48763ZM10.4888 18.2449V15.9489H11.5061V18.2449H10.4888ZM12.4897 18.2449V15.9489H13.5071V18.2449H12.4897ZM14.4908 18.2449V15.9489H15.5081V18.2449H14.4908ZM16.4919 18.2449V15.9489H17.5092V18.2449H16.4919ZM18.4929 18.2449V15.9489H19.5103V18.2449H18.4929ZM20.4939 18.2449V15.9489H21.5112V18.2449H20.4939ZM22.495 18.2449V15.9489H23.5123V18.2449H22.495ZM25.5134 18.2449H24.4961V15.9489H25.5134V18.2449ZM31.0163 28.2795H26.4971V15.052H5.50294V28.2795H0.98375V15.0367H2.98481V14.5882C2.98481 8.04484 8.82338 2.72139 16.0001 2.72139C23.1766 2.72139 29.0153 8.04478 29.0153 14.5882V15.0367H31.0164L31.0163 28.2795Z" fill="#333333"/>
<path d="M18.5014 20.0693H17.5008V20.9663H18.5014V20.0693Z" fill="#333333"/>
<path d="M20.0019 20.0693H19.0013V20.9663H20.0019V20.0693Z" fill="#333333"/>
<path d="M21.503 20.0693H20.5025V20.9663H21.503V20.0693Z" fill="#333333"/>
</g>
</svg>
