<svg width="35" height="37" viewBox="0 0 35 37" fill="none" xmlns="http://www.w3.org/2000/svg">
<g>
<path d="M25.1562 8.67188H9.84375C7.52391 8.67465 5.29984 9.65009 3.65947 11.3842C2.01909 13.1183 1.09638 15.4695 1.09375 17.9219V27.75C1.09375 27.9033 1.15137 28.0504 1.25393 28.1588C1.35649 28.2672 1.49559 28.3281 1.64062 28.3281H33.3594C33.5044 28.3281 33.6435 28.2672 33.7461 28.1588C33.8486 28.0504 33.9062 27.9033 33.9062 27.75V17.9219C33.9036 15.4695 32.9809 13.1183 31.3405 11.3842C29.7002 9.65009 27.4761 8.67465 25.1562 8.67188V8.67188ZM25.1562 9.82812C26.7059 9.83001 28.2187 10.3282 29.4953 11.257C30.7718 12.1858 31.7522 13.5017 32.3073 15.0312H25.8119C25.1175 12.8172 23.6612 10.96 21.7319 9.82812H25.1562ZM17.5 9.82812C19.0497 9.83001 20.5625 10.3282 21.839 11.257C23.1156 12.1858 24.096 13.5017 24.6511 15.0312H18.1557C17.4612 12.8172 16.0049 10.96 14.0756 9.82812H17.5ZM25.1562 17.9219V27.1719H18.5938V17.9219C18.5938 17.3399 18.5419 16.7592 18.4388 16.1875H24.9787C25.0968 16.7572 25.1564 17.3387 25.1562 17.9219V17.9219ZM15.3125 12.2637C16.0461 13.0551 16.6187 13.997 16.9948 15.0312H15.3125V12.2637ZM14.2188 11.2837V15.0312H5.46875V11.2837C6.75163 10.3362 8.27881 9.82812 9.84375 9.82812C11.4087 9.82812 12.9359 10.3362 14.2188 11.2837V11.2837ZM11.4844 27.1719H8.20312V18.5H11.4844V27.1719ZM12.0312 17.3438H7.65625C7.51121 17.3438 7.37211 17.4047 7.26955 17.5131C7.16699 17.6215 7.10938 17.7685 7.10938 17.9219V27.1719H5.46875V16.1875H14.2188V27.1719H12.5781V17.9219C12.5781 17.7685 12.5205 17.6215 12.4179 17.5131C12.3154 17.4047 12.1763 17.3438 12.0312 17.3438ZM4.375 12.2637V15.0312H2.69269C3.06882 13.997 3.64136 13.0551 4.375 12.2637V12.2637ZM2.1875 17.9219C2.18739 17.3387 2.24692 16.7572 2.36506 16.1875H4.375V27.1719H2.1875V17.9219ZM17.5 27.1719H15.3125V16.1875H17.3224C17.4406 16.7572 17.5001 17.3387 17.5 17.9219V27.1719ZM32.8125 27.1719H26.25V17.9219C26.25 17.3399 26.1982 16.7592 26.0951 16.1875H32.6349C32.7531 16.7572 32.8126 17.3387 32.8125 17.9219V27.1719Z" fill="#333333"/>
<path d="M20.2344 24.2812H23.5156C23.6607 24.2812 23.7998 24.2203 23.9023 24.1119C24.0049 24.0035 24.0625 23.8565 24.0625 23.7031V20.2344C24.0625 20.081 24.0049 19.934 23.9023 19.8256C23.7998 19.7172 23.6607 19.6563 23.5156 19.6562H20.2344C20.0893 19.6563 19.9502 19.7172 19.8477 19.8256C19.7451 19.934 19.6875 20.081 19.6875 20.2344V23.7031C19.6875 23.8565 19.7451 24.0035 19.8477 24.1119C19.9502 24.2203 20.0893 24.2812 20.2344 24.2812ZM20.7812 20.8125H22.9688V23.125H20.7812V20.8125Z" fill="#333333"/>
<path d="M31.1719 19.6562H27.8906C27.7456 19.6563 27.6065 19.7172 27.5039 19.8256C27.4014 19.934 27.3438 20.081 27.3438 20.2344V23.7031C27.3438 23.8565 27.4014 24.0035 27.5039 24.1119C27.6065 24.2203 27.7456 24.2812 27.8906 24.2812H31.1719C31.3169 24.2812 31.456 24.2203 31.5586 24.1119C31.6611 24.0035 31.7187 23.8565 31.7188 23.7031V20.2344C31.7187 20.081 31.6611 19.934 31.5586 19.8256C31.456 19.7172 31.3169 19.6563 31.1719 19.6562ZM30.625 23.125H28.4375V20.8125H30.625V23.125Z" fill="#333333"/>
</g>
</svg>
