<svg width="33" height="33" viewBox="0 0 33 33" fill="none" xmlns="http://www.w3.org/2000/svg">
<g>
<g clip-path="url(#clip0)">
<path d="M32.9616 22.1653C32.9614 22.1645 32.9611 22.164 32.9609 22.1632C32.9606 22.1627 32.9604 22.162 32.9601 22.1615L27.6699 9.89798C27.4773 9.45159 27.1863 9.06386 26.828 8.77684C26.1455 8.22949 25.2864 7.92787 24.4095 7.92787H21.5197C21.5073 7.92762 21.4952 7.92762 21.4829 7.92787H16.5145C16.5097 7.92787 16.5046 7.92762 16.4996 7.92762C16.4946 7.92762 16.4895 7.92787 16.4847 7.92787H11.5168C11.5042 7.92736 11.4914 7.92736 11.479 7.92787H9.17332C8.90644 7.92787 8.68992 8.14439 8.68992 8.41127C8.68992 8.6784 8.90644 8.89467 9.17332 8.89467H10.9L10.0283 12.9348C9.24004 12.3019 8.25083 11.9507 7.2085 11.9507C6.54609 11.9507 5.90307 12.0939 5.31946 12.3618L6.21678 10.2814C6.3477 9.97804 6.54257 9.71746 6.78024 9.52737C6.78024 9.52737 7.19314 9.23959 7.41974 9.13989C7.66395 9.03214 7.77473 8.74688 7.66698 8.50241C7.55922 8.25819 7.27371 8.14766 7.02949 8.25517C6.72737 8.38836 6.44287 8.56032 6.18379 8.76652C6.18329 8.76677 6.17725 8.7718 6.177 8.77206C5.8157 9.06059 5.52239 9.45007 5.32903 9.89848L1.92333 17.7933C1.91879 17.8031 1.91451 17.8129 1.91074 17.823L0.0390724 22.1615C0.0388206 22.162 0.0385689 22.1627 0.0383171 22.1632C0.0380653 22.164 0.0378136 22.1645 0.0375618 22.1653C0.0111259 22.228 -0.00121094 22.2934 -0.000455623 22.3581V24.1092C-0.000455623 24.4158 0.181575 24.6923 0.463055 24.8139C0.744031 24.935 1.06982 24.8778 1.29239 24.6676C2.15924 23.8496 3.29372 23.3992 4.48686 23.3992C5.79153 23.3992 7.04485 23.9516 7.92504 24.9143C8.06956 25.0727 8.27601 25.1636 8.49127 25.1636C8.70654 25.1636 8.91299 25.0727 9.05751 24.9146C9.9377 23.9516 11.1908 23.3992 12.4952 23.3992C13.7999 23.3992 15.0532 23.9516 15.9334 24.9143C16.0779 25.0727 16.2843 25.1636 16.4996 25.1636C16.7149 25.1636 16.9213 25.0727 17.0658 24.9146C17.946 23.9516 19.1991 23.3992 20.5033 23.3992C21.8082 23.3992 23.0615 23.9516 23.9417 24.9143C24.0862 25.0727 24.2927 25.1636 24.5079 25.1636C24.7232 25.1636 24.9296 25.0727 25.0742 24.9146C25.7109 24.218 26.5299 23.7366 27.4433 23.5221C27.7032 23.4611 27.8643 23.201 27.8034 22.941C27.7424 22.6811 27.4824 22.52 27.2223 22.5809C26.188 22.8236 25.2539 23.3496 24.5079 24.1069C23.4548 23.0402 22.0073 22.4324 20.5033 22.4324C18.9997 22.4324 17.5528 23.0402 16.4996 24.1072C15.4464 23.0402 13.9993 22.4324 12.4952 22.4324C10.9916 22.4324 9.54443 23.0402 8.49127 24.1072C7.43837 23.0402 5.99094 22.4324 4.48686 22.4324C3.19628 22.4324 1.96235 22.869 0.966345 23.6701V22.5281C2.87502 20.3218 6.3054 20.4104 8.11488 22.6562C8.12167 22.6618 8.21986 22.8022 8.42053 22.8312C8.6018 22.8566 8.76873 22.7831 8.87245 22.6504C9.76146 21.5504 11.0815 20.9198 12.4952 20.9198C13.8331 20.9198 15.093 21.4313 16.1325 22.6675C16.1393 22.6756 16.1451 22.6819 16.1514 22.6882C16.163 22.7005 16.1786 22.7149 16.1904 22.7244C16.275 22.7949 16.3891 22.8398 16.5129 22.8362C16.63 22.8325 16.7358 22.7889 16.8183 22.7164C16.8244 22.7111 16.8314 22.7048 16.8372 22.699C16.8453 22.691 16.8508 22.6854 16.8581 22.6771C16.8647 22.6698 16.8684 22.6655 16.8752 22.657C16.8755 22.6567 16.8757 22.6565 16.876 22.6562C17.7653 21.5527 19.0873 20.9198 20.5033 20.9198C22.9286 20.9198 24.1945 22.7212 24.1879 22.7154C24.5759 23.0565 24.9558 22.5938 24.8763 22.666C26.9476 20.2372 30.2581 20.4779 32.0329 22.5281V23.6698C31.2564 23.0449 30.3357 22.6409 29.345 22.4936C29.0814 22.4551 28.8351 22.6366 28.7958 22.9007C28.7566 23.1648 28.9389 23.4108 29.203 23.45C30.1448 23.5898 31.0107 24.011 31.7068 24.6674C31.9294 24.8776 32.2549 24.935 32.5359 24.8139C32.8176 24.6923 32.9994 24.4158 32.9994 24.1092V22.3581C33.0004 22.2934 32.9881 22.228 32.9616 22.1653ZM8.2108 21.3609C6.42751 19.781 3.81312 19.5023 1.73601 20.6687L2.77381 18.2631C3.54901 17.4131 4.65655 16.9269 5.82426 16.9269C7.00079 16.9269 8.10254 17.4126 8.87825 18.2663L8.2108 21.3609ZM9.11768 17.1565C8.20904 16.3881 7.04888 15.9601 5.82426 15.9601C5.01885 15.9601 4.23609 16.1482 3.53516 16.4979L4.57422 14.0892C5.23789 13.3437 6.19386 12.9175 7.2085 12.9175C8.20048 12.9175 9.13027 13.3211 9.79167 14.0316L9.11768 17.1565ZM16.0162 21.1894C15.0275 20.3935 13.7941 19.9527 12.4949 19.9527C11.33 19.9527 10.2174 20.3074 9.28712 20.955L9.86091 18.296C10.6379 17.4239 11.7512 16.9269 12.9408 16.9269C14.1282 16.9269 15.2395 17.4216 16.0162 18.2898V21.1894ZM16.0162 16.9823C15.1436 16.3237 14.0695 15.9601 12.9408 15.9601C11.9496 15.9601 11.0007 16.2406 10.1932 16.7552L10.7685 14.0874C11.4327 13.3422 12.3847 12.9172 13.4023 12.9172C14.4097 12.9172 15.3528 13.3334 16.0162 14.0648V16.9823ZM16.0162 12.779C15.2647 12.2445 14.3555 11.9507 13.4023 11.9507C12.5745 11.9507 11.7804 12.1722 11.0938 12.5806L11.8889 8.89467H16.0162V12.779ZM24.4095 8.89467C25.0769 8.89467 25.7041 9.11472 26.2232 9.53089C26.4587 9.71972 26.652 9.97905 26.7822 10.2809L27.6797 12.3618C27.0959 12.0939 26.4526 11.9507 25.79 11.9507C24.7481 11.9507 23.7589 12.3019 22.9709 12.9348L22.0992 8.89467H24.4095ZM16.983 8.89467H21.1103L21.9054 12.5806C21.2185 12.1722 20.424 11.9507 19.5961 11.9507C18.6429 11.9507 17.7343 12.2445 16.983 12.779V8.89467ZM16.983 14.0648C17.6462 13.3334 18.5891 12.9175 19.5961 12.9175C20.614 12.9175 21.5662 13.3422 22.2304 14.0874L22.806 16.7552C21.9983 16.2406 21.0491 15.9601 20.0574 15.9601C18.9289 15.9601 17.8554 16.3237 16.983 16.9823V14.0648ZM20.5033 19.9527C19.2046 19.9527 17.9715 20.3935 16.983 21.1894V18.29C17.7597 17.4216 18.8705 16.9269 20.0576 16.9269C21.2478 16.9269 22.3613 17.4239 23.1383 18.296L23.7118 20.9553C22.7815 20.3077 21.669 19.9527 20.5033 19.9527ZM23.2073 14.0316C23.8689 13.3211 24.7982 12.9175 25.79 12.9175C26.8051 12.9175 27.7613 13.3437 28.425 14.0892L29.464 16.4979C28.7629 16.1482 27.9801 15.9601 27.1742 15.9601C25.9498 15.9601 24.7899 16.3881 23.8815 17.1565L23.2073 14.0316ZM24.7884 21.3609L24.121 18.2663C24.8964 17.4126 25.9982 16.9269 27.1742 16.9269C28.3424 16.9269 29.4499 17.4131 30.2254 18.2631L31.2635 20.6687C29.2244 19.5242 26.6077 19.7488 24.7884 21.3609Z" fill="#333333"/>
</g>
</g>
<defs>
<clipPath id="clip0">
<rect width="33" height="33" fill="white"/>
</clipPath>
</defs>
</svg>
