<svg width="31" height="31" viewBox="0 0 31 31" fill="none" xmlns="http://www.w3.org/2000/svg">
<g>
<g clip-path="url(#clip0)">
<path d="M28.4166 0H3.61665C1.62017 0.00230078 0.00230078 1.62017 0 3.61665V28.4166C0.00169531 29.8427 1.15729 30.9983 2.58335 31H14.9834C15.5538 30.9993 16.016 30.5371 16.0167 29.9666V23.464L23.4639 16.0166H29.9667C30.5371 16.016 30.9994 15.5538 31.0001 14.9833V2.58329C30.9983 1.15729 29.8427 0.00169531 28.4166 0ZM14.9834 29.9666H9.51421L14.9834 24.4974V29.9666ZM29.9666 14.9834H24.4971L29.9666 9.51367V14.9834ZM29.9666 7.4107C29.9654 7.82151 29.8023 8.2153 29.5125 8.50659L22.8848 15.1345L22.8845 15.1348L15.1353 22.8842L15.1341 22.8854L8.50684 29.5128C8.21663 29.8044 7.82187 29.9679 7.41045 29.9667H2.58335C1.72771 29.9658 1.03426 29.2724 1.03335 28.4167V3.61671C1.03505 2.19065 2.19065 1.03505 3.61671 1.03335H28.4167C29.2724 1.03426 29.9658 1.72771 29.9667 2.58335V7.4107H29.9666Z" fill="#333333"/>
<path d="M5.68339 3.1001C4.2566 3.1001 3.10004 4.25666 3.10004 5.68345C3.10173 7.10951 4.25733 8.26511 5.68339 8.2668C7.11012 8.2668 8.26674 7.11024 8.26674 5.68345C8.26668 4.25666 7.11012 3.1001 5.68339 3.1001ZM5.68339 7.23345C4.82732 7.23345 4.13339 6.53952 4.13339 5.68345C4.1343 4.8278 4.82774 4.13436 5.68339 4.13345C6.5394 4.13345 7.23339 4.82738 7.23339 5.68345C7.23339 6.53946 6.5394 7.23345 5.68339 7.23345Z" fill="#333333"/>
<path d="M5.68339 22.7334C4.25666 22.7334 3.10004 23.89 3.10004 25.3168C3.10004 26.7435 4.2566 27.9 5.68339 27.9C7.10945 27.8983 8.26505 26.7428 8.26674 25.3167C8.26668 23.89 7.11012 22.7334 5.68339 22.7334ZM5.68339 26.8667C4.82732 26.8667 4.13339 26.1728 4.13339 25.3167C4.13339 24.4606 4.82732 23.7667 5.68339 23.7667C6.5394 23.7667 7.23339 24.4607 7.23339 25.3167C7.23242 26.1723 6.53904 26.8658 5.68339 26.8667Z" fill="#333333"/>
<path d="M25.3166 3.1001C23.8899 3.1001 22.7333 4.25666 22.7333 5.68345C22.735 7.10951 23.8906 8.26511 25.3166 8.2668C26.7434 8.2668 27.9 7.11024 27.9 5.68345C27.9 4.25666 26.7434 3.1001 25.3166 3.1001ZM25.3166 7.23345C24.4606 7.23345 23.7666 6.53952 23.7666 5.68345C23.7675 4.8278 24.461 4.13436 25.3166 4.13345C26.1726 4.13345 26.8666 4.82738 26.8666 5.68345C26.8666 6.53946 26.1727 7.23345 25.3166 7.23345Z" fill="#333333"/>
</g>
</g>
<defs>
<clipPath id="clip0">
<rect width="31" height="31" fill="white"/>
</clipPath>
</defs>
</svg>
