<svg width="32" height="32" viewBox="0 0 32 32" fill="none" xmlns="http://www.w3.org/2000/svg">
<g>
<path d="M16.0238 2.18726C10.4131 2.18726 5.84845 6.75189 5.84845 12.3626V29.48C5.84845 29.7653 6.03864 29.9555 6.32393 29.9555H25.7237C26.0089 29.9555 26.1991 29.7653 26.1991 29.48V12.3626C26.1991 6.75189 21.6345 2.18726 16.0238 2.18726ZM9.31948 6.03867L14.8826 11.8871H6.79942C6.94206 9.60479 7.89303 7.56021 9.31948 6.03867ZM15.5483 29.0045H6.79942V21.3968H15.5483V29.0045ZM15.5483 20.4458H6.79942V12.8381H15.5483V20.4458ZM15.5483 11.1739L10.0327 5.37299C11.5542 4.08919 13.4562 3.28087 15.5483 3.13822V11.1739ZM25.2006 11.8871H17.165L22.7281 6.03867C24.2021 7.56021 25.1055 9.60479 25.2006 11.8871ZM16.4993 3.13822C18.5914 3.23332 20.5409 4.04164 22.0149 5.37299L16.4993 11.1739V3.13822ZM25.2482 29.0045H16.4993V21.3968H25.2482V29.0045ZM25.2482 20.4458H16.4993V12.8381H25.2482V20.4458Z" fill="#333333"/>
<path d="M24.6776 3.47103C22.4428 1.23626 19.3522 0 16.0238 0C9.3195 0 4.08919 4.84993 3.75635 11.3165V31.5245C3.75635 31.8098 3.94654 32 4.23183 32H27.7682C28.0535 32 28.2437 31.8098 28.2437 31.5245V11.3165C28.1011 8.41605 26.8173 5.56315 24.6776 3.47103ZM27.3403 31.0966H4.75486V11.364C4.9926 5.42051 9.89008 0.950966 16.0238 0.950966C21.3017 0.950966 27.0075 4.84993 27.3403 11.364V31.0966Z" fill="#333333"/>
</g>
</svg>
